<?xml version="1.0" encoding="utf-8"?>
<!-- Generator: Adobe Illustrator 26.0.2, SVG Export Plug-In . SVG Version: 6.00 Build 0)  -->
<svg version="1.1" id="Layer_1" xmlns="http://www.w3.org/2000/svg" xmlns:xlink="http://www.w3.org/1999/xlink" x="0px" y="0px"
	 viewBox="0 0 760.17 419" style="enable-background:new 0 0 760.17 419;" xml:space="preserve">
<style type="text/css">
	.st0{fill:#567994;}
	.st1{fill:#73AE80;}
	.st2{fill:#90B2B3;}
	.st3{fill:#5A9178;}
	.st4{fill:#B5C0DA;}
	.st5{fill:#2A5A5B;}
	.st6{fill:#FFFFFF;}
	.st7{fill:#231F20;}
</style>
<g id="Layer_1_00000140697558130016003600000017895680944583728520_">
	<circle class="st0" cx="227.01" cy="76.86" r="5.5"/>
	<circle class="st1" cx="573.76" cy="283.98" r="7"/>
	<circle class="st2" cx="155.93" cy="236.71" r="9"/>
	<circle class="st0" cx="549.29" cy="90.45" r="17"/>
	<circle class="st2" cx="607.2" cy="231.29" r="22.5"/>
	<circle class="st3" cx="179.67" cy="319.34" r="13"/>
	<circle class="st4" cx="163.66" cy="118.62" r="32.5"/>
	<circle class="st5" cx="601.81" cy="150.26" r="35.5"/>
	<circle class="st3" cx="370.67" cy="225.76" r="187"/>
	<g>
		<g>
			<path class="st6" d="M263.46,223.78c-0.64,0.92-1.53,1.62-2.65,2.09s-2.43,0.7-3.92,0.7h-4.4c-0.19,0-0.28,0.09-0.28,0.28v7.36
				c0,0.37-0.21,0.56-0.62,0.56h-3.02c-0.19,0-0.32-0.04-0.39-0.13c-0.08-0.08-0.11-0.21-0.11-0.38v-19.8
				c0-0.32,0.14-0.48,0.42-0.48h7.92c1.49,0,2.85,0.22,4.06,0.67s2.17,1.14,2.88,2.07c0.71,0.93,1.06,2.13,1.06,3.58
				C264.42,221.71,264.1,222.86,263.46,223.78z M259.68,218.39c-0.33-0.49-0.79-0.84-1.4-1.05s-1.3-0.32-2.09-0.32h-3.5
				c-0.32,0-0.48,0.14-0.48,0.42v5.66c0,0.32,0.12,0.48,0.36,0.48h3.78c1.16,0,2.08-0.28,2.77-0.85s1.04-1.4,1.04-2.48
				C260.17,219.49,260,218.88,259.68,218.39z"/>
			<path class="st6" d="M273.5,234.56c-0.75,0.33-1.6,0.49-2.55,0.49c-1.44,0-2.57-0.38-3.39-1.13s-1.23-1.74-1.23-2.95
				c0-1.03,0.31-1.92,0.94-2.67c0.63-0.76,1.53-1.35,2.7-1.78s2.58-0.68,4.23-0.76l1.4-0.08c0.11-0.02,0.21-0.06,0.31-0.11
				c0.09-0.06,0.14-0.16,0.14-0.31v-0.64c0-0.82-0.24-1.46-0.73-1.92c-0.49-0.46-1.16-0.69-2.02-0.69c-0.65,0-1.26,0.15-1.83,0.43
				c-0.57,0.29-1.06,0.76-1.47,1.41c-0.06,0.13-0.12,0.21-0.18,0.24c-0.07,0.03-0.18,0.02-0.35-0.01l-2.38-0.59
				c-0.08-0.04-0.14-0.09-0.18-0.17c-0.05-0.07-0.01-0.22,0.1-0.45c0.49-1.06,1.28-1.87,2.38-2.41c1.1-0.54,2.46-0.81,4.09-0.81
				c1.44,0,2.6,0.2,3.49,0.59c0.89,0.39,1.54,0.94,1.95,1.64s0.62,1.53,0.62,2.48v9.86c0,0.21-0.03,0.35-0.1,0.43
				s-0.19,0.13-0.38,0.13h-2.38c-0.17,0-0.29-0.07-0.36-0.2c-0.08-0.13-0.12-0.29-0.14-0.48l-0.06-0.84
				c-0.04-0.32-0.21-0.33-0.53-0.03C274.93,233.79,274.24,234.24,273.5,234.56z M275.62,227.52l-1.15,0.08
				c-0.6,0.04-1.17,0.13-1.72,0.27s-1.04,0.33-1.46,0.56s-0.76,0.52-1.01,0.87c-0.25,0.35-0.38,0.75-0.38,1.22
				c0,0.63,0.23,1.14,0.69,1.51s1.08,0.56,1.86,0.56c0.5,0,0.97-0.08,1.4-0.25s0.8-0.38,1.12-0.64s0.57-0.54,0.77-0.83
				s0.29-0.58,0.29-0.88V228C276.04,227.68,275.9,227.52,275.62,227.52z"/>
			<path class="st6" d="M286.66,234.16c0,0.22-0.05,0.38-0.14,0.48c-0.09,0.09-0.26,0.14-0.5,0.14h-2.46c-0.37,0-0.56-0.17-0.56-0.5
				l0.08-19.8c0-0.32,0.14-0.48,0.42-0.48h2.77c0.26,0,0.39,0.15,0.39,0.45V234.16z"/>
			<path class="st6" d="M290.21,234.27v-13.86c0-0.32,0.13-0.48,0.39-0.48h2.77c0.26,0,0.39,0.14,0.39,0.42v1.46
				c0,0.11,0.03,0.18,0.08,0.21c0.06,0.03,0.13,0,0.22-0.1c0.52-0.47,1.03-0.87,1.53-1.2c0.49-0.34,1.01-0.6,1.54-0.8
				s1.1-0.29,1.69-0.29c1.05,0,1.9,0.24,2.58,0.73s1.14,1.1,1.4,1.85c0.04,0.07,0.09,0.1,0.17,0.08c0.07-0.02,0.15-0.07,0.22-0.14
				c0.49-0.49,1-0.91,1.54-1.29c0.54-0.37,1.1-0.67,1.68-0.88s1.16-0.32,1.74-0.32c1.33,0,2.37,0.4,3.14,1.19
				c0.77,0.79,1.15,1.87,1.15,3.23v10.11c0,0.39-0.2,0.59-0.59,0.59h-2.58c-0.17,0-0.29-0.04-0.36-0.11s-0.11-0.21-0.11-0.39v-9.63
				c0-0.73-0.18-1.29-0.55-1.69c-0.36-0.4-0.91-0.6-1.64-0.6c-0.43,0-0.84,0.08-1.23,0.25s-0.75,0.37-1.06,0.6
				c-0.32,0.23-0.6,0.47-0.84,0.71c-0.13,0.13-0.22,0.26-0.27,0.38c-0.05,0.12-0.07,0.27-0.07,0.43v9.46c0,0.39-0.2,0.59-0.59,0.59
				h-2.58c-0.15,0-0.27-0.04-0.35-0.11s-0.13-0.21-0.13-0.39v-9.63c0-0.73-0.18-1.29-0.55-1.69c-0.36-0.4-0.91-0.6-1.64-0.6
				c-0.63,0-1.22,0.16-1.75,0.48c-0.53,0.32-1.11,0.79-1.72,1.43v9.97c0,0.37-0.21,0.56-0.64,0.56h-2.49
				C290.38,234.77,290.21,234.6,290.21,234.27z"/>
			<path class="st6" d="M324.41,234.07c-1.11-0.65-1.97-1.55-2.59-2.7s-0.92-2.46-0.92-3.93c0-1.55,0.32-2.91,0.97-4.07
				c0.64-1.17,1.52-2.08,2.63-2.73c1.11-0.65,2.38-0.98,3.79-0.98c1.47,0,2.76,0.33,3.86,0.99s1.96,1.58,2.58,2.74
				s0.92,2.51,0.92,4.02c0,1.49-0.31,2.81-0.94,3.96c-0.63,1.15-1.49,2.05-2.59,2.7s-2.39,0.98-3.86,0.98
				C326.81,235.05,325.52,234.73,324.41,234.07z M330.31,231.96c0.54-0.4,0.95-0.99,1.23-1.76c0.28-0.77,0.42-1.72,0.42-2.84
				c0-1.14-0.15-2.1-0.43-2.88c-0.29-0.78-0.71-1.38-1.25-1.79c-0.54-0.41-1.2-0.62-1.99-0.62c-0.77,0-1.43,0.21-1.99,0.62
				c-0.56,0.41-0.99,1.01-1.27,1.79c-0.29,0.78-0.43,1.75-0.43,2.88c0,1.12,0.14,2.07,0.43,2.84c0.29,0.77,0.71,1.36,1.27,1.76
				s1.22,0.6,1.99,0.6C329.09,232.56,329.76,232.36,330.31,231.96z"/>
			<path class="st6" d="M342.12,217.19c0,0.43-0.22,0.64-0.67,0.64h-2.55c-0.21,0-0.35-0.05-0.42-0.14
				c-0.08-0.09-0.11-0.23-0.11-0.42v-2.74c0-0.35,0.15-0.53,0.45-0.53h2.88c0.28,0,0.42,0.17,0.42,0.5L342.12,217.19L342.12,217.19z
				 M342.07,234.16c0,0.22-0.05,0.38-0.15,0.48c-0.1,0.09-0.28,0.14-0.52,0.14h-2.44c-0.21,0-0.35-0.04-0.42-0.13
				c-0.08-0.08-0.11-0.21-0.11-0.38v-13.86c0-0.32,0.13-0.48,0.39-0.48h2.86c0.26,0,0.39,0.15,0.39,0.45L342.07,234.16
				L342.07,234.16z"/>
			<path class="st6" d="M349.23,234.16c0,0.22-0.05,0.38-0.14,0.48c-0.09,0.09-0.26,0.14-0.5,0.14h-2.46c-0.37,0-0.56-0.17-0.56-0.5
				l0.08-19.8c0-0.32,0.14-0.48,0.42-0.48h2.77c0.26,0,0.39,0.15,0.39,0.45V234.16z"/>
		</g>
	</g>
	<g>
		<g>
			<path class="st6" d="M281.88,249.07c0.56-0.62,1.19-1.13,1.89-1.54c0.7-0.41,1.46-0.72,2.28-0.94s1.67-0.32,2.55-0.32
				c1.51,0,2.81,0.23,3.89,0.69c1.08,0.46,1.91,1.08,2.49,1.88c0.58,0.79,0.87,1.71,0.87,2.76c0,0.97-0.3,1.86-0.91,2.67
				c-0.61,0.81-1.45,1.4-2.53,1.78c-0.21,0.08-0.31,0.15-0.32,0.21c-0.01,0.07,0.09,0.14,0.29,0.21c0.78,0.21,1.48,0.55,2.1,1.02
				c0.62,0.48,1.11,1.05,1.47,1.74c0.36,0.68,0.55,1.44,0.55,2.28c0,1.21-0.3,2.28-0.91,3.19c-0.61,0.92-1.52,1.63-2.74,2.14
				s-2.76,0.77-4.61,0.77c-0.97,0-1.9-0.12-2.79-0.36s-1.7-0.59-2.45-1.05s-1.41-1.02-1.99-1.69c-0.09-0.13-0.13-0.24-0.1-0.34
				c0.03-0.09,0.1-0.19,0.21-0.28l1.51-1.12c0.13-0.11,0.23-0.16,0.31-0.14c0.07,0.02,0.14,0.06,0.2,0.11
				c0.56,0.58,1.11,1.04,1.65,1.39s1.11,0.6,1.71,0.76s1.25,0.24,1.96,0.24c1.49,0,2.65-0.33,3.47-0.98s1.23-1.5,1.23-2.55
				c0-0.82-0.23-1.51-0.69-2.07s-1.05-0.98-1.79-1.27c-0.74-0.29-1.53-0.44-2.37-0.46l-2.44-0.03c-0.26,0-0.39-0.1-0.39-0.31v-1.82
				c0-0.19,0.13-0.29,0.39-0.31l1.96-0.06c0.92,0,1.72-0.15,2.42-0.46c0.7-0.31,1.26-0.73,1.67-1.26s0.62-1.12,0.62-1.78
				c0-0.58-0.17-1.1-0.5-1.55c-0.34-0.46-0.8-0.82-1.4-1.09s-1.28-0.41-2.04-0.41c-0.93,0-1.79,0.18-2.58,0.53
				c-0.78,0.35-1.54,0.89-2.27,1.6c-0.11,0.09-0.2,0.15-0.27,0.15c-0.07,0.01-0.16-0.04-0.29-0.15l-1.32-1.26
				C281.74,249.43,281.74,249.26,281.88,249.07z"/>
			<path class="st6" d="M302.79,266.82c0,0.34-0.2,0.5-0.59,0.5h-2.38c-0.32,0-0.48-0.15-0.48-0.45v-2.77
				c0-0.26,0.11-0.39,0.34-0.39h2.8c0.21,0,0.31,0.12,0.31,0.36L302.79,266.82L302.79,266.82z"/>
			<path class="st6" d="M319.48,246.55c0.21,0,0.35,0.04,0.43,0.13s0.13,0.18,0.13,0.29l-0.06,1.18c0,0.15-0.05,0.34-0.15,0.56
				s-0.22,0.43-0.35,0.62c-0.71,1.08-1.4,2.25-2.07,3.51s-1.29,2.54-1.86,3.85c-0.57,1.31-1.08,2.58-1.53,3.82s-0.82,2.39-1.11,3.46
				c-0.29,1.06-0.48,1.98-0.57,2.74c-0.04,0.41-0.2,0.62-0.48,0.62h-2.91c-0.36,0-0.49-0.19-0.39-0.56
				c0.28-1.04,0.63-2.19,1.05-3.43c0.42-1.24,0.94-2.58,1.57-4.03c0.62-1.45,1.36-2.97,2.21-4.58s1.82-3.28,2.93-5.01
				c0.07-0.11,0.1-0.21,0.08-0.28s-0.11-0.11-0.28-0.11H305.7c-0.28,0-0.41-0.14-0.39-0.42l0.2-2.04c0.04-0.21,0.21-0.31,0.53-0.31
				L319.48,246.55L319.48,246.55z"/>
			<path class="st6" d="M332.15,246.62c0.1-0.05,0.26-0.07,0.46-0.07h2.41c0.24,0,0.36,0.13,0.36,0.39v12.32
				c0,0.19,0.08,0.28,0.25,0.28h2.52c0.28,0,0.42,0.11,0.42,0.34v1.68c0,0.28-0.14,0.42-0.42,0.42h-2.49
				c-0.19,0-0.28,0.09-0.28,0.28v4.59c0,0.32-0.18,0.48-0.53,0.48h-2.44c-0.3,0-0.45-0.15-0.45-0.45v-4.7c0-0.13-0.09-0.2-0.28-0.2
				h-8.85c-0.32,0-0.48-0.14-0.48-0.42v-1.71c0-0.15,0.04-0.3,0.13-0.46s0.22-0.36,0.41-0.6l8.9-11.87
				C331.93,246.77,332.04,246.67,332.15,246.62z M331.69,259.54c0.17,0,0.25-0.06,0.25-0.2v-8.6c0-0.22-0.03-0.34-0.08-0.36
				s-0.16,0.07-0.31,0.25l-6.27,8.54c-0.19,0.24-0.12,0.36,0.2,0.36h6.21L331.69,259.54L331.69,259.54z"/>
			<path class="st6" d="M346.3,254.62c-0.17,0-0.25,0.09-0.25,0.28v8.2c0,0.8,0.15,1.35,0.45,1.64c0.3,0.29,0.76,0.43,1.37,0.43
				h1.79c0.11,0,0.2,0.03,0.25,0.1c0.06,0.07,0.08,0.14,0.08,0.24v1.2c0,0.24-0.14,0.4-0.42,0.48c-0.24,0.04-0.54,0.07-0.9,0.08
				c-0.36,0.02-0.71,0.03-1.05,0.04c-0.35,0.01-0.65,0.01-0.91,0.01c-1.21,0-2.12-0.28-2.73-0.85s-0.91-1.45-0.91-2.65v-8.88
				c0-0.22-0.09-0.34-0.28-0.34h-2.1c-0.24,0-0.36-0.11-0.36-0.34v-1.48c0-0.21,0.11-0.31,0.34-0.31h2.24
				c0.15,0,0.22-0.08,0.22-0.25l0.34-4.4c0.02-0.26,0.13-0.39,0.34-0.39h1.93c0.24,0,0.36,0.15,0.36,0.45v4.34
				c0,0.17,0.08,0.25,0.25,0.25h3.36c0.22,0,0.34,0.1,0.34,0.31v1.48c0,0.22-0.13,0.34-0.39,0.34h-3.36L346.3,254.62L346.3,254.62z"
				/>
		</g>
	</g>
	<g>
		<g>
			<path class="st7" d="M61.09,103.88c-0.03,0.06-0.09,0.09-0.16,0.09h-1.36c-0.11,0-0.2-0.07-0.25-0.2l-1.71-4.26
				c-0.05-0.11-0.16-0.17-0.35-0.17h-2.04c-0.07,0-0.11,0.02-0.13,0.05s-0.04,0.07-0.04,0.1v4.21c0,0.17-0.09,0.25-0.27,0.25h-1.19
				c-0.09,0-0.16-0.02-0.19-0.06s-0.05-0.09-0.05-0.17v-9.95c0-0.14,0.06-0.21,0.2-0.21h4.05c1.15,0,2.04,0.23,2.68,0.7
				c0.64,0.47,0.96,1.15,0.96,2.04c0,0.51-0.1,0.95-0.29,1.32c-0.2,0.37-0.45,0.67-0.75,0.9s-0.63,0.39-0.97,0.5
				c-0.07,0.03-0.08,0.08-0.06,0.17l1.93,4.47C61.12,103.75,61.12,103.82,61.09,103.88z M58.92,97.75c0.38-0.27,0.57-0.71,0.57-1.29
				c0-0.56-0.17-0.98-0.52-1.26c-0.34-0.28-0.83-0.42-1.47-0.42h-2.23c-0.15,0-0.22,0.06-0.22,0.17v3.02c0,0.13,0.05,0.2,0.15,0.2
				h2.06C57.99,98.16,58.54,98.02,58.92,97.75z"/>
			<path class="st7" d="M66.07,103.86c-0.39,0.17-0.83,0.25-1.33,0.25c-0.72,0-1.28-0.19-1.69-0.56c-0.41-0.37-0.62-0.86-0.62-1.47
				c0-0.51,0.15-0.95,0.44-1.32c0.29-0.36,0.72-0.65,1.29-0.87c0.56-0.21,1.25-0.34,2.07-0.38l0.91-0.07
				c0.06-0.01,0.11-0.03,0.15-0.06c0.05-0.03,0.07-0.08,0.07-0.15v-0.35c0-0.46-0.14-0.82-0.42-1.08s-0.66-0.4-1.15-0.4
				c-0.36,0-0.7,0.08-1.01,0.25c-0.31,0.17-0.58,0.43-0.83,0.78c-0.03,0.05-0.06,0.08-0.08,0.1c-0.03,0.02-0.08,0.02-0.15,0
				l-0.95-0.28c-0.04-0.02-0.06-0.04-0.08-0.08s0-0.1,0.04-0.19c0.27-0.5,0.67-0.89,1.2-1.17c0.53-0.28,1.17-0.41,1.94-0.41
				c0.67,0,1.22,0.1,1.65,0.29s0.75,0.47,0.96,0.83s0.31,0.78,0.31,1.27v4.94c0,0.09-0.02,0.16-0.05,0.19s-0.09,0.05-0.16,0.05
				h-0.95c-0.07,0-0.12-0.03-0.15-0.08c-0.04-0.05-0.06-0.12-0.07-0.2l-0.01-0.53c-0.03-0.15-0.11-0.16-0.24-0.03
				C66.82,103.45,66.46,103.69,66.07,103.86z M67.16,100.28l-0.76,0.06c-0.37,0.02-0.71,0.07-1.02,0.15s-0.57,0.18-0.79,0.31
				s-0.39,0.29-0.52,0.47s-0.19,0.39-0.19,0.64c0,0.36,0.13,0.65,0.38,0.86s0.6,0.31,1.04,0.31c0.28,0,0.54-0.05,0.79-0.15
				s0.46-0.22,0.65-0.37c0.19-0.16,0.33-0.32,0.44-0.49s0.16-0.33,0.16-0.49v-1.09C67.35,100.33,67.29,100.26,67.16,100.28z"/>
			<path class="st7" d="M72.17,96.78v0.55c0,0.07,0.02,0.1,0.05,0.1c0.03,0,0.08-0.02,0.13-0.06c0.12-0.12,0.27-0.25,0.45-0.4
				c0.18-0.14,0.4-0.27,0.68-0.39c0.27-0.11,0.61-0.17,1.01-0.17c0.57,0,1.08,0.14,1.53,0.41c0.45,0.28,0.81,0.69,1.08,1.24
				c0.27,0.55,0.4,1.25,0.4,2.1c0,0.86-0.13,1.58-0.4,2.16c-0.27,0.58-0.63,1.03-1.11,1.33s-1.02,0.46-1.64,0.46
				c-0.41,0-0.78-0.06-1.1-0.19s-0.6-0.3-0.85-0.51c-0.08-0.08-0.14-0.12-0.18-0.1c-0.04,0.01-0.06,0.08-0.06,0.19v2.59
				c0,0.13-0.06,0.2-0.17,0.2h-1.13c-0.12,0-0.18-0.07-0.18-0.2V96.8c0-0.09,0.02-0.16,0.06-0.2c0.04-0.04,0.11-0.06,0.21-0.06h0.98
				C72.09,96.55,72.17,96.63,72.17,96.78z M72.96,102.87c0.28,0.15,0.59,0.23,0.93,0.23c0.42,0,0.79-0.11,1.1-0.32
				s0.56-0.54,0.73-0.97c0.18-0.43,0.27-0.98,0.27-1.65c0-0.66-0.09-1.19-0.27-1.6c-0.18-0.4-0.43-0.69-0.73-0.88
				c-0.31-0.18-0.65-0.27-1.02-0.27c-0.35,0-0.65,0.07-0.92,0.22s-0.48,0.34-0.64,0.56c-0.15,0.22-0.23,0.45-0.23,0.67v3.37
				C72.42,102.51,72.69,102.72,72.96,102.87z"/>
			<path class="st7" d="M80.54,101.92c0.2,0.34,0.47,0.61,0.81,0.81s0.72,0.3,1.14,0.3c0.43,0,0.81-0.09,1.15-0.27
				c0.34-0.18,0.64-0.45,0.92-0.83c0.03-0.04,0.06-0.06,0.08-0.06c0.03,0,0.07,0.01,0.13,0.03l0.71,0.34
				c0.1,0.05,0.11,0.12,0.03,0.22c-0.26,0.38-0.55,0.7-0.86,0.94c-0.31,0.24-0.66,0.42-1.04,0.53s-0.81,0.17-1.27,0.17
				c-0.71,0-1.33-0.16-1.88-0.48s-0.97-0.76-1.28-1.33s-0.47-1.22-0.47-1.96c0-0.81,0.16-1.51,0.48-2.09
				c0.32-0.58,0.75-1.04,1.29-1.36c0.55-0.32,1.15-0.48,1.83-0.48c0.69,0,1.3,0.15,1.81,0.46s0.92,0.74,1.21,1.31
				s0.43,1.26,0.43,2.07c0,0.08-0.01,0.16-0.03,0.22s-0.08,0.09-0.18,0.09h-5.18c-0.05,0-0.08,0.02-0.1,0.06s-0.04,0.1-0.04,0.16
				C80.24,101.2,80.33,101.58,80.54,101.92z M84.06,99.67c0.1,0,0.17-0.01,0.2-0.04s0.04-0.08,0.04-0.15c0-0.35-0.08-0.69-0.23-1.01
				s-0.37-0.57-0.66-0.77s-0.64-0.29-1.06-0.29c-0.44,0-0.81,0.1-1.13,0.31c-0.31,0.21-0.55,0.49-0.71,0.83s-0.25,0.71-0.25,1.11
				L84.06,99.67z"/>
			<path class="st7" d="M91,97.64c-0.32-0.17-0.7-0.25-1.13-0.25c-0.46,0-0.84,0.09-1.14,0.28s-0.46,0.45-0.46,0.78
				c0,0.16,0.07,0.32,0.2,0.48s0.41,0.3,0.84,0.42l1.72,0.49c0.68,0.18,1.17,0.44,1.47,0.8c0.3,0.35,0.45,0.76,0.45,1.22
				c0,0.47-0.13,0.87-0.4,1.2c-0.27,0.33-0.63,0.59-1.11,0.78s-1.01,0.28-1.62,0.28c-0.76,0-1.43-0.15-2-0.44
				c-0.56-0.29-0.96-0.66-1.2-1.1c-0.02-0.06-0.03-0.1-0.03-0.15s0.02-0.08,0.06-0.1l0.69-0.36c0.07-0.04,0.12-0.05,0.16-0.05
				s0.07,0.03,0.09,0.06c0.15,0.21,0.32,0.41,0.52,0.57c0.2,0.17,0.43,0.3,0.71,0.4s0.62,0.15,1.01,0.15c0.33,0,0.62-0.04,0.89-0.13
				s0.47-0.21,0.62-0.37s0.22-0.34,0.22-0.56s-0.09-0.42-0.27-0.58s-0.5-0.31-0.96-0.43l-1.43-0.36c-0.71-0.19-1.22-0.44-1.53-0.77
				c-0.31-0.33-0.46-0.72-0.46-1.18s0.12-0.86,0.36-1.2s0.58-0.61,1.03-0.81c0.44-0.2,0.96-0.29,1.56-0.29
				c0.65,0,1.23,0.12,1.72,0.37s0.87,0.56,1.12,0.94c0.03,0.04,0.05,0.08,0.06,0.12c0.01,0.04-0.01,0.08-0.07,0.12l-0.73,0.38
				c-0.04,0.02-0.08,0.02-0.12,0.01s-0.08-0.03-0.12-0.07C91.57,98.03,91.32,97.81,91,97.64z"/>
			<path class="st7" d="M95.92,101.92c0.2,0.34,0.47,0.61,0.81,0.81s0.72,0.3,1.14,0.3c0.43,0,0.81-0.09,1.15-0.27
				c0.34-0.18,0.64-0.45,0.92-0.83c0.03-0.04,0.06-0.06,0.08-0.06c0.03,0,0.07,0.01,0.13,0.03l0.71,0.34
				c0.1,0.05,0.11,0.12,0.03,0.22c-0.26,0.38-0.55,0.7-0.86,0.94c-0.31,0.24-0.66,0.42-1.04,0.53s-0.81,0.17-1.27,0.17
				c-0.71,0-1.33-0.16-1.88-0.48s-0.97-0.76-1.28-1.33s-0.47-1.22-0.47-1.96c0-0.81,0.16-1.51,0.48-2.09
				c0.32-0.58,0.75-1.04,1.29-1.36c0.55-0.32,1.15-0.48,1.83-0.48c0.69,0,1.3,0.15,1.81,0.46s0.92,0.74,1.21,1.31
				s0.43,1.26,0.43,2.07c0,0.08-0.01,0.16-0.03,0.22s-0.08,0.09-0.18,0.09h-5.18c-0.05,0-0.08,0.02-0.1,0.06s-0.04,0.1-0.04,0.16
				C95.62,101.2,95.72,101.58,95.92,101.92z M99.44,99.67c0.1,0,0.17-0.01,0.2-0.04s0.04-0.08,0.04-0.15c0-0.35-0.08-0.69-0.23-1.01
				s-0.37-0.57-0.66-0.77s-0.64-0.29-1.06-0.29c-0.44,0-0.81,0.1-1.13,0.31c-0.31,0.21-0.55,0.49-0.71,0.83s-0.25,0.71-0.25,1.11
				L99.44,99.67z"/>
			<path class="st7" d="M104.07,101.92c0.2,0.34,0.47,0.61,0.81,0.81s0.72,0.3,1.14,0.3c0.43,0,0.81-0.09,1.15-0.27
				c0.34-0.18,0.64-0.45,0.92-0.83c0.03-0.04,0.06-0.06,0.08-0.06c0.03,0,0.07,0.01,0.13,0.03l0.71,0.34
				c0.1,0.05,0.11,0.12,0.03,0.22c-0.26,0.38-0.55,0.7-0.86,0.94c-0.31,0.24-0.66,0.42-1.04,0.53s-0.81,0.17-1.27,0.17
				c-0.71,0-1.33-0.16-1.88-0.48s-0.97-0.76-1.28-1.33s-0.47-1.22-0.47-1.96c0-0.81,0.16-1.51,0.48-2.09
				c0.32-0.58,0.75-1.04,1.29-1.36c0.55-0.32,1.15-0.48,1.83-0.48c0.69,0,1.3,0.15,1.81,0.46s0.92,0.74,1.21,1.31
				s0.43,1.26,0.43,2.07c0,0.08-0.01,0.16-0.03,0.22s-0.08,0.09-0.18,0.09h-5.18c-0.05,0-0.08,0.02-0.1,0.06s-0.04,0.1-0.04,0.16
				C103.77,101.2,103.87,101.58,104.07,101.92z M107.59,99.67c0.1,0,0.17-0.01,0.2-0.04s0.04-0.08,0.04-0.15
				c0-0.35-0.08-0.69-0.23-1.01s-0.37-0.57-0.66-0.77s-0.64-0.29-1.06-0.29c-0.44,0-0.81,0.1-1.13,0.31
				c-0.31,0.21-0.55,0.49-0.71,0.83s-0.25,0.71-0.25,1.11L107.59,99.67z"/>
			<path class="st7" d="M115.86,103.92c-0.04-0.04-0.06-0.09-0.06-0.17v-0.53c0-0.07-0.02-0.1-0.06-0.11s-0.08,0.01-0.13,0.06
				c-0.12,0.11-0.28,0.24-0.46,0.39s-0.42,0.28-0.7,0.39s-0.61,0.17-0.99,0.17c-0.58,0-1.1-0.14-1.56-0.42s-0.83-0.7-1.09-1.25
				c-0.27-0.56-0.4-1.25-0.4-2.08c0-0.79,0.14-1.48,0.42-2.07s0.66-1.05,1.15-1.38c0.49-0.33,1.03-0.5,1.64-0.5
				c0.44,0,0.81,0.07,1.11,0.21s0.58,0.32,0.82,0.53c0.07,0.07,0.13,0.09,0.17,0.08c0.04-0.01,0.06-0.07,0.06-0.17v-3.26
				c0-0.14,0.06-0.21,0.18-0.21h1.12c0.12,0,0.18,0.07,0.18,0.21v9.94c0,0.08-0.02,0.14-0.06,0.18s-0.11,0.06-0.21,0.06h-0.97
				C115.95,103.97,115.9,103.95,115.86,103.92z M114.95,97.66c-0.27-0.15-0.57-0.22-0.91-0.22c-0.41,0-0.78,0.11-1.1,0.32
				s-0.57,0.53-0.76,0.96c-0.18,0.42-0.27,0.96-0.27,1.6c0,0.65,0.09,1.19,0.28,1.6c0.19,0.41,0.44,0.71,0.75,0.9
				s0.66,0.29,1.03,0.29c0.34,0,0.64-0.08,0.91-0.24s0.49-0.36,0.64-0.6c0.16-0.24,0.24-0.47,0.24-0.71v-3.28
				C115.5,98.02,115.22,97.81,114.95,97.66z"/>
		</g>
	</g>
	<g>
		<g>
			<path class="st7" d="M87.63,112.56c0.49,0.24,0.92,0.59,1.28,1.04c0.36,0.46,0.65,1.02,0.85,1.69c0.2,0.67,0.3,1.43,0.3,2.27
				c0,1.13-0.17,2.09-0.52,2.88s-0.83,1.39-1.44,1.8s-1.3,0.62-2.07,0.62c-0.78,0-1.47-0.21-2.07-0.62
				c-0.61-0.41-1.08-1.01-1.44-1.79c-0.35-0.78-0.52-1.74-0.52-2.87c0-0.86,0.1-1.62,0.31-2.28c0.21-0.66,0.49-1.23,0.85-1.69
				s0.79-0.81,1.28-1.05c0.49-0.24,1.02-0.36,1.6-0.36C86.61,112.2,87.14,112.32,87.63,112.56z M87.28,121.19
				c0.34-0.27,0.6-0.71,0.78-1.3c0.18-0.59,0.27-1.37,0.27-2.33c0-0.98-0.09-1.77-0.28-2.38s-0.45-1.05-0.8-1.33
				s-0.76-0.42-1.23-0.42s-0.87,0.14-1.22,0.42c-0.34,0.28-0.61,0.73-0.8,1.34s-0.29,1.4-0.29,2.37c0,0.96,0.1,1.74,0.29,2.33
				s0.46,1.03,0.8,1.3c0.35,0.28,0.76,0.41,1.23,0.41C86.53,121.61,86.94,121.47,87.28,121.19z"/>
			<path class="st7" d="M93.28,122.48c0,0.17-0.1,0.25-0.29,0.25H91.8c-0.16,0-0.24-0.07-0.24-0.22v-1.39c0-0.13,0.06-0.2,0.17-0.2
				h1.4c0.1,0,0.15,0.06,0.15,0.18C93.28,121.1,93.28,122.48,93.28,122.48z"/>
			<path class="st7" d="M100.22,112.35c0.31,0.09,0.59,0.21,0.83,0.36c0.24,0.15,0.45,0.31,0.63,0.49s0.31,0.36,0.41,0.55
				c0.02,0.05,0.03,0.09,0.04,0.14c0,0.05-0.03,0.08-0.1,0.11l-1.02,0.38c-0.06,0.03-0.1,0.03-0.14-0.01
				c-0.04-0.03-0.07-0.07-0.1-0.1c-0.19-0.24-0.4-0.44-0.64-0.59c-0.24-0.15-0.55-0.22-0.93-0.22c-0.61,0-1.11,0.15-1.51,0.44
				s-0.7,0.7-0.89,1.21s-0.29,1.1-0.29,1.75c0,0.16,0.02,0.26,0.05,0.3c0.03,0.04,0.11,0.04,0.22-0.02
				c0.34-0.16,0.71-0.31,1.08-0.44c0.38-0.14,0.83-0.2,1.36-0.2c0.72,0,1.34,0.13,1.86,0.39c0.52,0.26,0.91,0.62,1.19,1.08
				s0.41,0.99,0.41,1.58c0,0.65-0.17,1.23-0.5,1.73s-0.79,0.89-1.35,1.17c-0.57,0.28-1.2,0.42-1.9,0.42c-0.85,0-1.58-0.21-2.19-0.62
				s-1.08-1-1.41-1.76c-0.33-0.77-0.5-1.68-0.5-2.76c0-1.15,0.18-2.13,0.53-2.95s0.86-1.45,1.51-1.89s1.42-0.66,2.31-0.66
				C99.56,112.21,99.91,112.26,100.22,112.35z M98.19,117.74c-0.28,0.05-0.54,0.12-0.78,0.21c-0.25,0.09-0.46,0.19-0.62,0.3
				c-0.09,0.07-0.16,0.13-0.2,0.2c-0.04,0.07-0.06,0.19-0.06,0.36c0,0.33,0.05,0.66,0.15,0.99c0.1,0.33,0.25,0.64,0.44,0.93
				c0.2,0.29,0.44,0.52,0.74,0.69c0.3,0.17,0.64,0.26,1.04,0.26s0.76-0.09,1.08-0.27s0.57-0.43,0.76-0.75s0.28-0.67,0.28-1.06
				c0-0.37-0.09-0.7-0.26-0.99s-0.41-0.52-0.72-0.69c-0.31-0.17-0.67-0.25-1.09-0.25C98.71,117.66,98.46,117.69,98.19,117.74z"/>
			<path class="st7" d="M111.05,112.34c0.12,0,0.2,0.02,0.22,0.05s0.04,0.1,0.03,0.19l-0.06,0.95c-0.01,0.08-0.03,0.14-0.05,0.16
				c-0.02,0.02-0.08,0.04-0.17,0.04h-4.66c-0.12,0-0.19,0.06-0.2,0.17l-0.21,2.65c-0.01,0.07,0,0.11,0.04,0.15s0.08,0.04,0.13,0.02
				c0.35-0.16,0.7-0.3,1.03-0.41s0.73-0.17,1.2-0.17c0.64,0,1.23,0.11,1.77,0.34c0.54,0.23,0.97,0.58,1.29,1.06
				c0.33,0.48,0.49,1.08,0.49,1.81c0,0.75-0.17,1.38-0.52,1.91c-0.35,0.53-0.82,0.93-1.44,1.21c-0.61,0.28-1.31,0.42-2.11,0.42
				c-0.77,0-1.48-0.13-2.14-0.4c-0.66-0.27-1.2-0.64-1.62-1.13c-0.05-0.06-0.07-0.13-0.08-0.18c0-0.06,0.03-0.11,0.11-0.17
				l0.77-0.57c0.09-0.07,0.19-0.06,0.28,0.03c0.24,0.23,0.48,0.44,0.71,0.62c0.23,0.18,0.49,0.32,0.77,0.42s0.62,0.15,1.01,0.15
				c0.55,0,1.02-0.1,1.41-0.29c0.39-0.19,0.68-0.46,0.88-0.81s0.3-0.73,0.3-1.16c0-0.45-0.1-0.82-0.29-1.12s-0.46-0.53-0.79-0.68
				s-0.71-0.23-1.13-0.23c-0.44,0-0.84,0.08-1.19,0.24c-0.35,0.16-0.7,0.33-1.02,0.5c-0.08,0.04-0.14,0.05-0.16,0.05
				c-0.02,0-0.07-0.03-0.13-0.06l-0.87-0.49c-0.08-0.05-0.13-0.09-0.13-0.13s0-0.11,0.01-0.22l0.38-4.66
				c0.01-0.09,0.04-0.16,0.08-0.19s0.14-0.05,0.3-0.05h5.76C111.05,112.36,111.05,112.34,111.05,112.34z"/>
			<path class="st7" d="M115.92,116.37c-0.08,0-0.13,0.05-0.13,0.14v4.1c0,0.4,0.08,0.67,0.22,0.82c0.15,0.14,0.38,0.22,0.69,0.22
				h0.9c0.06,0,0.1,0.02,0.13,0.05c0.03,0.03,0.04,0.07,0.04,0.12v0.6c0,0.12-0.07,0.2-0.21,0.24c-0.12,0.02-0.27,0.03-0.45,0.04
				s-0.35,0.02-0.53,0.02s-0.32,0.01-0.46,0.01c-0.61,0-1.06-0.14-1.36-0.43c-0.3-0.28-0.46-0.73-0.46-1.32v-4.44
				c0-0.11-0.05-0.17-0.14-0.17h-1.05c-0.12,0-0.18-0.06-0.18-0.17v-0.74c0-0.1,0.06-0.15,0.17-0.15h1.12
				c0.07,0,0.11-0.04,0.11-0.13l0.17-2.2c0.01-0.13,0.07-0.2,0.17-0.2h0.97c0.12,0,0.18,0.07,0.18,0.22v2.17
				c0,0.08,0.04,0.13,0.13,0.13h1.68c0.11,0,0.17,0.05,0.17,0.15v0.74c0,0.11-0.07,0.17-0.2,0.17L115.92,116.37L115.92,116.37z"/>
		</g>
	</g>
	<g>
		<g>
			<path class="st7" d="M68.74,231.73c-0.67-0.43-1.19-1.04-1.55-1.83s-0.54-1.73-0.54-2.81c0-1.12,0.19-2.08,0.57-2.88
				s0.91-1.42,1.59-1.85s1.47-0.64,2.38-0.64c0.68,0,1.3,0.14,1.87,0.41c0.56,0.27,1.03,0.62,1.39,1.06s0.58,0.9,0.67,1.39
				c0.02,0.09,0.02,0.16,0,0.19s-0.06,0.06-0.13,0.08l-1.27,0.2c-0.06,0.01-0.1,0-0.12-0.03c-0.02-0.03-0.04-0.07-0.05-0.14
				c-0.07-0.35-0.21-0.67-0.42-0.96c-0.21-0.28-0.49-0.51-0.82-0.69s-0.71-0.26-1.14-0.26c-0.58,0-1.07,0.15-1.48,0.45
				s-0.72,0.75-0.93,1.34c-0.21,0.6-0.32,1.35-0.32,2.25c0,0.95,0.11,1.73,0.32,2.34s0.53,1.06,0.95,1.35
				c0.42,0.29,0.92,0.44,1.5,0.44c0.4,0,0.76-0.07,1.06-0.2c0.31-0.13,0.56-0.31,0.77-0.53s0.36-0.47,0.48-0.73s0.18-0.52,0.21-0.78
				l0.01-0.7c0.02-0.11-0.03-0.17-0.14-0.17h-2.1c-0.06,0-0.1-0.01-0.13-0.04c-0.03-0.02-0.04-0.07-0.04-0.13v-0.74
				c0-0.1,0.05-0.15,0.15-0.15l3.56,0.01c0.09,0,0.16,0.02,0.21,0.06s0.07,0.1,0.07,0.16v4.86c0,0.07-0.02,0.11-0.05,0.14
				c-0.03,0.03-0.08,0.04-0.13,0.04h-0.36c-0.07,0-0.12-0.01-0.17-0.04c-0.05-0.02-0.09-0.07-0.12-0.15l-0.22-1.2
				c-0.01-0.05-0.03-0.07-0.05-0.07s-0.05,0.02-0.09,0.07c-0.17,0.26-0.39,0.51-0.65,0.74c-0.27,0.23-0.59,0.42-0.98,0.57
				c-0.39,0.14-0.85,0.22-1.38,0.22C70.2,232.37,69.41,232.16,68.74,231.73z"/>
			<path class="st7" d="M77.28,232.18c-0.04-0.04-0.06-0.09-0.06-0.17v-6.99c0-0.14,0.06-0.21,0.18-0.21h1.08
				c0.11,0,0.17,0.06,0.17,0.18v0.88c0,0.06,0.02,0.09,0.05,0.1c0.03,0.01,0.07-0.01,0.1-0.06c0.23-0.28,0.47-0.51,0.71-0.69
				c0.24-0.18,0.48-0.32,0.72-0.41s0.49-0.14,0.73-0.14c0.33,0,0.49,0.07,0.49,0.2v1.09c0,0.11-0.05,0.16-0.15,0.14
				c-0.11-0.03-0.23-0.05-0.36-0.06s-0.25-0.01-0.39-0.01c-0.2,0-0.4,0.04-0.62,0.13c-0.21,0.08-0.41,0.2-0.6,0.34
				c-0.18,0.14-0.33,0.31-0.45,0.48c-0.12,0.18-0.18,0.36-0.18,0.55V232c0,0.16-0.09,0.24-0.27,0.24h-0.99
				C77.37,232.23,77.31,232.21,77.28,232.18z"/>
			<path class="st7" d="M84.08,231.89c-0.54-0.32-0.96-0.77-1.26-1.34s-0.45-1.23-0.45-1.98c0-0.77,0.15-1.45,0.46-2.04
				c0.31-0.58,0.74-1.04,1.28-1.36s1.17-0.49,1.87-0.49c0.73,0,1.36,0.17,1.9,0.5s0.95,0.79,1.25,1.37s0.45,1.25,0.45,2.01
				c0,0.75-0.15,1.41-0.46,1.98c-0.3,0.57-0.73,1.02-1.27,1.35c-0.54,0.33-1.17,0.49-1.89,0.49S84.62,232.21,84.08,231.89z
				 M87.12,230.99c0.31-0.22,0.54-0.54,0.71-0.96c0.16-0.42,0.25-0.92,0.25-1.5s-0.08-1.09-0.25-1.51c-0.16-0.42-0.4-0.74-0.71-0.97
				s-0.69-0.34-1.13-0.34c-0.44,0-0.81,0.11-1.13,0.34c-0.31,0.23-0.55,0.55-0.72,0.97s-0.25,0.92-0.25,1.51s0.08,1.09,0.25,1.5
				c0.17,0.42,0.41,0.73,0.72,0.96c0.31,0.22,0.69,0.34,1.14,0.34C86.44,231.32,86.81,231.21,87.12,230.99z"/>
			<path class="st7" d="M94.9,230.95c0.33-0.2,0.66-0.47,0.97-0.81v-5.1c0-0.16,0.09-0.24,0.27-0.24h1.01
				c0.15,0,0.22,0.07,0.22,0.22l-0.03,7c0,0.13-0.06,0.2-0.17,0.2h-1.09c-0.11,0-0.17-0.06-0.17-0.18v-0.78
				c0-0.05-0.01-0.08-0.04-0.09c-0.02-0.01-0.06,0-0.11,0.05c-0.48,0.43-0.91,0.73-1.3,0.9s-0.79,0.25-1.2,0.25
				c-0.42,0-0.8-0.09-1.13-0.27s-0.59-0.43-0.78-0.76s-0.29-0.71-0.29-1.15v-5.14c0-0.17,0.08-0.25,0.25-0.25h1.02
				c0.14,0,0.21,0.07,0.21,0.22v4.86c0,0.4,0.11,0.73,0.34,0.98s0.54,0.38,0.95,0.38C94.21,231.25,94.56,231.15,94.9,230.95z"/>
			<path class="st7" d="M99.31,232.01v-6.99c0-0.14,0.06-0.21,0.18-0.21h1.11c0.11,0,0.17,0.06,0.17,0.18v0.77
				c0,0.05,0.01,0.08,0.04,0.09s0.06,0,0.11-0.05c0.29-0.23,0.56-0.44,0.83-0.61c0.26-0.17,0.53-0.3,0.8-0.39
				c0.27-0.09,0.56-0.13,0.88-0.13c0.71,0,1.26,0.2,1.65,0.59s0.59,0.91,0.59,1.55v5.17c0,0.17-0.08,0.25-0.24,0.25h-1.04
				c-0.07,0-0.13-0.02-0.16-0.05c-0.03-0.03-0.05-0.09-0.05-0.18v-4.9c0-0.41-0.11-0.73-0.32-0.97s-0.55-0.35-0.99-0.35
				c-0.25,0-0.49,0.04-0.7,0.12s-0.43,0.2-0.64,0.35c-0.21,0.15-0.45,0.35-0.71,0.58v5.15c0,0.16-0.09,0.24-0.27,0.24h-0.99
				C99.39,232.23,99.31,232.16,99.31,232.01z"/>
			<path class="st7" d="M112.62,232.18c-0.04-0.04-0.06-0.09-0.06-0.17v-0.53c0-0.07-0.02-0.1-0.06-0.11s-0.08,0.01-0.13,0.06
				c-0.12,0.11-0.28,0.24-0.46,0.39s-0.42,0.28-0.7,0.39s-0.61,0.17-0.99,0.17c-0.58,0-1.1-0.14-1.56-0.42s-0.83-0.7-1.09-1.25
				c-0.27-0.56-0.4-1.25-0.4-2.08c0-0.79,0.14-1.48,0.42-2.07c0.28-0.59,0.66-1.05,1.15-1.38s1.03-0.5,1.64-0.5
				c0.44,0,0.81,0.07,1.11,0.21s0.58,0.32,0.82,0.53c0.07,0.07,0.13,0.09,0.17,0.08s0.06-0.07,0.06-0.17v-3.26
				c0-0.14,0.06-0.21,0.18-0.21h1.12c0.12,0,0.18,0.07,0.18,0.21v9.94c0,0.08-0.02,0.14-0.06,0.18s-0.11,0.06-0.21,0.06h-0.97
				C112.71,232.23,112.66,232.21,112.62,232.18z M111.72,225.92c-0.27-0.15-0.57-0.22-0.91-0.22c-0.41,0-0.78,0.11-1.1,0.32
				s-0.57,0.53-0.76,0.96c-0.18,0.42-0.27,0.96-0.27,1.6c0,0.65,0.09,1.19,0.28,1.6s0.44,0.71,0.75,0.9
				c0.31,0.19,0.66,0.29,1.03,0.29c0.34,0,0.64-0.08,0.91-0.24s0.49-0.36,0.64-0.6c0.16-0.24,0.24-0.47,0.24-0.71v-3.28
				C112.26,226.28,111.99,226.07,111.72,225.92z"/>
			<path class="st7" d="M115.97,232.01v-6.99c0-0.14,0.06-0.21,0.18-0.21h1.11c0.11,0,0.17,0.06,0.17,0.18v0.77
				c0,0.05,0.01,0.08,0.04,0.09s0.06,0,0.11-0.05c0.29-0.23,0.56-0.44,0.83-0.61c0.26-0.17,0.53-0.3,0.8-0.39
				c0.27-0.09,0.56-0.13,0.88-0.13c0.71,0,1.26,0.2,1.65,0.59s0.59,0.91,0.59,1.55v5.17c0,0.17-0.08,0.25-0.24,0.25h-1.04
				c-0.07,0-0.13-0.02-0.16-0.05c-0.03-0.03-0.05-0.09-0.05-0.18v-4.9c0-0.41-0.11-0.73-0.32-0.97s-0.55-0.35-0.99-0.35
				c-0.25,0-0.49,0.04-0.7,0.12s-0.43,0.2-0.64,0.35c-0.21,0.15-0.45,0.35-0.71,0.58v5.15c0,0.16-0.09,0.24-0.27,0.24h-0.99
				C116.05,232.23,115.97,232.16,115.97,232.01z"/>
			<path class="st7" d="M127.95,230.95c0.33-0.2,0.66-0.47,0.97-0.81v-5.1c0-0.16,0.09-0.24,0.27-0.24h1.01
				c0.15,0,0.22,0.07,0.22,0.22l-0.03,7c0,0.13-0.06,0.2-0.17,0.2h-1.09c-0.11,0-0.17-0.06-0.17-0.18v-0.78
				c0-0.05-0.01-0.08-0.04-0.09c-0.02-0.01-0.06,0-0.11,0.05c-0.48,0.43-0.91,0.73-1.3,0.9s-0.79,0.25-1.2,0.25
				c-0.42,0-0.8-0.09-1.13-0.27s-0.59-0.43-0.78-0.76s-0.29-0.71-0.29-1.15v-5.14c0-0.17,0.08-0.25,0.25-0.25h1.02
				c0.14,0,0.21,0.07,0.21,0.22v4.86c0,0.4,0.11,0.73,0.34,0.98s0.54,0.38,0.95,0.38C127.27,231.25,127.62,231.15,127.95,230.95z"/>
			<path class="st7" d="M134.69,225.88c-0.08,0-0.13,0.05-0.13,0.14v4.1c0,0.4,0.08,0.67,0.22,0.82c0.15,0.14,0.38,0.22,0.69,0.22
				h0.9c0.06,0,0.1,0.02,0.13,0.05s0.04,0.07,0.04,0.12v0.6c0,0.12-0.07,0.2-0.21,0.24c-0.12,0.02-0.27,0.03-0.45,0.04
				s-0.35,0.02-0.53,0.02s-0.32,0.01-0.46,0.01c-0.61,0-1.06-0.14-1.36-0.43c-0.3-0.28-0.46-0.73-0.46-1.32v-4.44
				c0-0.11-0.05-0.17-0.14-0.17h-1.05c-0.12,0-0.18-0.06-0.18-0.17v-0.74c0-0.1,0.06-0.15,0.17-0.15H133c0.07,0,0.11-0.04,0.11-0.13
				l0.17-2.2c0.01-0.13,0.07-0.2,0.17-0.2h0.97c0.12,0,0.18,0.07,0.18,0.22v2.17c0,0.08,0.04,0.13,0.13,0.13h1.68
				c0.11,0,0.17,0.05,0.17,0.15v0.74c0,0.11-0.07,0.17-0.2,0.17L134.69,225.88L134.69,225.88z"/>
		</g>
	</g>
	<g>
		<g>
			<path class="st7" d="M108.9,240.85c0.49,0.24,0.92,0.59,1.28,1.04c0.36,0.46,0.65,1.02,0.85,1.69s0.3,1.43,0.3,2.27
				c0,1.13-0.17,2.09-0.52,2.88c-0.35,0.79-0.83,1.39-1.44,1.8s-1.3,0.62-2.07,0.62c-0.78,0-1.47-0.21-2.07-0.62
				c-0.61-0.41-1.08-1.01-1.44-1.79c-0.35-0.78-0.52-1.74-0.52-2.87c0-0.86,0.1-1.62,0.31-2.28s0.49-1.23,0.85-1.69
				s0.79-0.81,1.28-1.05s1.02-0.36,1.6-0.36C107.88,240.49,108.41,240.61,108.9,240.85z M108.55,249.48c0.34-0.27,0.6-0.71,0.78-1.3
				s0.27-1.37,0.27-2.33c0-0.98-0.09-1.77-0.28-2.38s-0.45-1.05-0.8-1.33s-0.76-0.42-1.23-0.42s-0.87,0.14-1.22,0.42
				c-0.34,0.28-0.61,0.73-0.8,1.34s-0.29,1.4-0.29,2.37c0,0.96,0.1,1.74,0.29,2.33s0.46,1.03,0.8,1.3c0.35,0.28,0.76,0.41,1.23,0.41
				C107.79,249.9,108.21,249.76,108.55,249.48z"/>
			<path class="st7" d="M114.54,250.77c0,0.17-0.1,0.25-0.29,0.25h-1.19c-0.16,0-0.24-0.07-0.24-0.22v-1.39
				c0-0.13,0.06-0.2,0.17-0.2h1.4c0.1,0,0.15,0.06,0.15,0.18V250.77z"/>
			<path class="st7" d="M121.42,249.88v0.95c0,0.05-0.02,0.09-0.05,0.13c-0.03,0.04-0.09,0.06-0.16,0.06h-5.1
				c-0.13,0-0.2-0.06-0.2-0.17v-0.97c0-0.1,0.06-0.15,0.18-0.15h1.67c0.08,0,0.13-0.03,0.13-0.08v-7.13c0-0.11-0.05-0.15-0.15-0.13
				l-1.61,0.56c-0.15,0.04-0.22-0.03-0.22-0.2v-0.67c0-0.08,0.01-0.14,0.04-0.16c0.02-0.02,0.06-0.05,0.12-0.09l2.17-1.08
				c0.1-0.05,0.18-0.08,0.25-0.1s0.14-0.03,0.23-0.03h0.7c0.12,0,0.18,0.07,0.18,0.2v8.78c0,0.08,0.03,0.13,0.1,0.13h1.54
				C121.35,249.73,121.42,249.78,121.42,249.88z"/>
			<path class="st7" d="M128.5,240.85c0.54,0.24,0.95,0.58,1.25,1.01s0.45,0.93,0.45,1.5c0,0.42-0.11,0.8-0.34,1.14
				c-0.22,0.34-0.57,0.67-1.05,0.99c-0.14,0.08-0.14,0.16-0.01,0.22c0.44,0.19,0.79,0.41,1.06,0.66s0.47,0.53,0.6,0.83
				s0.2,0.64,0.2,1c0,0.61-0.17,1.13-0.51,1.58s-0.82,0.78-1.43,1.02c-0.61,0.24-1.32,0.36-2.12,0.36c-0.78,0-1.47-0.11-2.05-0.32
				s-1.03-0.52-1.35-0.92s-0.48-0.89-0.48-1.47c0-0.48,0.12-0.91,0.37-1.3s0.66-0.76,1.24-1.11c0.1-0.07,0.16-0.11,0.17-0.15
				c0.01-0.03-0.04-0.08-0.15-0.15c-0.25-0.16-0.48-0.34-0.69-0.54s-0.37-0.44-0.48-0.71c-0.12-0.27-0.17-0.58-0.17-0.94
				c0-0.57,0.15-1.08,0.46-1.55c0.3-0.46,0.73-0.83,1.27-1.11c0.55-0.27,1.18-0.41,1.91-0.41
				C127.34,240.49,127.96,240.61,128.5,240.85z M128.38,249.53c0.41-0.3,0.62-0.71,0.62-1.22c0-0.38-0.11-0.7-0.32-0.95
				s-0.56-0.44-1.06-0.56l-1.67-0.43c-0.14-0.03-0.31,0-0.5,0.07c-0.2,0.07-0.39,0.2-0.57,0.37c-0.19,0.17-0.35,0.38-0.48,0.62
				c-0.13,0.24-0.2,0.51-0.2,0.81c0,0.54,0.21,0.97,0.62,1.28c0.42,0.31,1.03,0.47,1.85,0.47
				C127.4,249.98,127.96,249.83,128.38,249.53z M125.62,241.89c-0.31,0.15-0.56,0.35-0.75,0.61s-0.28,0.55-0.28,0.89
				c0,0.76,0.43,1.24,1.3,1.46l1.33,0.32c0.14,0.04,0.29,0.01,0.46-0.08s0.33-0.23,0.5-0.41s0.3-0.38,0.4-0.61
				c0.1-0.23,0.15-0.46,0.15-0.71c0-0.48-0.18-0.89-0.55-1.21c-0.37-0.32-0.88-0.48-1.52-0.48
				C126.29,241.66,125.94,241.74,125.62,241.89z"/>
			<path class="st7" d="M134.69,244.66c-0.08,0-0.13,0.05-0.13,0.14v4.1c0,0.4,0.08,0.67,0.22,0.82c0.15,0.14,0.38,0.22,0.69,0.22
				h0.9c0.06,0,0.1,0.02,0.13,0.05s0.04,0.07,0.04,0.12v0.6c0,0.12-0.07,0.2-0.21,0.24c-0.12,0.02-0.27,0.03-0.45,0.04
				s-0.35,0.02-0.53,0.02s-0.32,0.01-0.46,0.01c-0.61,0-1.06-0.14-1.36-0.43c-0.3-0.28-0.46-0.73-0.46-1.32v-4.44
				c0-0.11-0.05-0.17-0.14-0.17h-1.05c-0.12,0-0.18-0.06-0.18-0.17v-0.74c0-0.1,0.06-0.15,0.17-0.15H133c0.07,0,0.11-0.04,0.11-0.13
				l0.17-2.2c0.01-0.13,0.07-0.2,0.17-0.2h0.97c0.12,0,0.18,0.07,0.18,0.22v2.17c0,0.08,0.04,0.13,0.13,0.13h1.68
				c0.11,0,0.17,0.05,0.17,0.15v0.74c0,0.11-0.07,0.17-0.2,0.17L134.69,244.66L134.69,244.66z"/>
		</g>
	</g>
	<g>
		<g>
			<path class="st7" d="M152.14,33.25c-0.36-0.2-0.82-0.29-1.39-0.29c-0.66,0-1.18,0.14-1.55,0.41c-0.37,0.28-0.55,0.66-0.55,1.14
				c0,0.13,0.03,0.28,0.1,0.46c0.06,0.18,0.2,0.35,0.4,0.51s0.49,0.31,0.88,0.46l2.1,0.66c0.85,0.26,1.46,0.63,1.83,1.11
				s0.55,1.04,0.55,1.69c0,0.62-0.16,1.15-0.47,1.6c-0.31,0.45-0.76,0.79-1.33,1.03c-0.57,0.24-1.26,0.36-2.05,0.36
				c-0.59,0-1.13-0.07-1.63-0.2s-0.94-0.34-1.33-0.6s-0.71-0.59-0.97-0.97c-0.04-0.06-0.05-0.13-0.04-0.18
				c0.01-0.06,0.05-0.11,0.13-0.17l0.69-0.48c0.1-0.07,0.18-0.09,0.24-0.08s0.11,0.04,0.15,0.1c0.23,0.3,0.47,0.55,0.71,0.76
				s0.51,0.36,0.83,0.46c0.31,0.1,0.69,0.15,1.14,0.15c0.7,0,1.26-0.12,1.69-0.37s0.64-0.64,0.64-1.18c0-0.21-0.04-0.41-0.13-0.58
				c-0.08-0.17-0.23-0.33-0.43-0.48c-0.21-0.14-0.5-0.29-0.9-0.43l-2.11-0.69c-0.53-0.18-0.96-0.41-1.29-0.69
				c-0.33-0.28-0.58-0.6-0.74-0.95c-0.16-0.35-0.24-0.72-0.24-1.09c0-0.6,0.15-1.12,0.46-1.57c0.31-0.45,0.74-0.8,1.29-1.04
				c0.55-0.25,1.19-0.37,1.93-0.37c0.49,0,0.95,0.06,1.37,0.17c0.42,0.12,0.79,0.28,1.14,0.49c0.35,0.21,0.64,0.46,0.88,0.75
				c0.04,0.05,0.06,0.09,0.08,0.14c0.01,0.05-0.01,0.1-0.08,0.15l-0.8,0.62c-0.06,0.04-0.1,0.05-0.13,0.04s-0.08-0.05-0.15-0.12
				C152.79,33.68,152.49,33.45,152.14,33.25z"/>
			<path class="st7" d="M157.61,40.19c0.2,0.34,0.47,0.61,0.81,0.81s0.72,0.3,1.14,0.3c0.43,0,0.81-0.09,1.15-0.27
				s0.64-0.45,0.92-0.83c0.03-0.04,0.06-0.06,0.08-0.06c0.03,0,0.07,0.01,0.13,0.03l0.71,0.34c0.1,0.05,0.11,0.12,0.03,0.22
				c-0.26,0.38-0.55,0.7-0.86,0.94c-0.31,0.24-0.66,0.42-1.04,0.53c-0.38,0.11-0.81,0.17-1.27,0.17c-0.71,0-1.33-0.16-1.88-0.48
				s-0.97-0.76-1.28-1.33s-0.47-1.22-0.47-1.96c0-0.81,0.16-1.51,0.48-2.09c0.32-0.58,0.75-1.04,1.29-1.36
				c0.55-0.32,1.15-0.48,1.83-0.48c0.69,0,1.3,0.15,1.81,0.46s0.92,0.74,1.21,1.31s0.43,1.26,0.43,2.07c0,0.08-0.01,0.16-0.03,0.22
				s-0.08,0.09-0.18,0.09h-5.18c-0.05,0-0.08,0.02-0.1,0.06s-0.04,0.1-0.04,0.16C157.31,39.47,157.41,39.85,157.61,40.19z
				 M161.13,37.94c0.1,0,0.17-0.01,0.2-0.04c0.03-0.03,0.04-0.08,0.04-0.15c0-0.35-0.08-0.69-0.23-1.01s-0.37-0.57-0.66-0.77
				c-0.29-0.2-0.64-0.29-1.06-0.29c-0.44,0-0.81,0.1-1.13,0.31c-0.31,0.21-0.55,0.49-0.71,0.83s-0.25,0.71-0.25,1.11L161.13,37.94z"
				/>
			<path class="st7" d="M168.07,35.91c-0.32-0.17-0.7-0.25-1.13-0.25c-0.46,0-0.84,0.09-1.14,0.28s-0.46,0.45-0.46,0.78
				c0,0.16,0.07,0.32,0.2,0.48c0.13,0.16,0.41,0.3,0.84,0.42l1.72,0.49c0.68,0.18,1.17,0.44,1.47,0.8c0.3,0.35,0.45,0.76,0.45,1.22
				c0,0.47-0.13,0.87-0.4,1.2c-0.27,0.33-0.63,0.59-1.11,0.78s-1.01,0.28-1.62,0.28c-0.76,0-1.43-0.15-2-0.44
				c-0.56-0.29-0.96-0.66-1.2-1.1c-0.02-0.06-0.03-0.1-0.03-0.15s0.02-0.08,0.06-0.1l0.69-0.36c0.07-0.04,0.12-0.05,0.16-0.05
				s0.07,0.03,0.09,0.06c0.15,0.21,0.32,0.41,0.52,0.57c0.2,0.17,0.43,0.3,0.71,0.4c0.28,0.1,0.62,0.15,1.01,0.15
				c0.33,0,0.62-0.04,0.89-0.13s0.47-0.21,0.62-0.37s0.22-0.34,0.22-0.56s-0.09-0.42-0.27-0.58c-0.18-0.16-0.5-0.31-0.96-0.43
				l-1.43-0.36c-0.71-0.19-1.22-0.44-1.53-0.77s-0.46-0.72-0.46-1.18s0.12-0.86,0.36-1.2s0.58-0.61,1.03-0.81
				c0.44-0.2,0.96-0.29,1.56-0.29c0.65,0,1.23,0.12,1.72,0.37s0.87,0.56,1.12,0.94c0.03,0.04,0.05,0.08,0.06,0.12
				c0.01,0.04-0.01,0.08-0.07,0.12l-0.73,0.38c-0.04,0.02-0.08,0.02-0.12,0.01s-0.08-0.03-0.12-0.07
				C168.64,36.3,168.39,36.08,168.07,35.91z"/>
			<path class="st7" d="M174.67,42.13c-0.39,0.17-0.83,0.25-1.33,0.25c-0.72,0-1.28-0.19-1.69-0.56c-0.41-0.37-0.62-0.86-0.62-1.47
				c0-0.51,0.15-0.95,0.44-1.32c0.29-0.36,0.72-0.65,1.29-0.87c0.56-0.21,1.25-0.34,2.07-0.38l0.91-0.07
				c0.06-0.01,0.11-0.03,0.15-0.06c0.05-0.03,0.07-0.08,0.07-0.15v-0.35c0-0.46-0.14-0.82-0.42-1.08s-0.66-0.4-1.15-0.4
				c-0.36,0-0.7,0.08-1.01,0.25s-0.58,0.43-0.83,0.78c-0.03,0.05-0.06,0.08-0.08,0.1c-0.03,0.02-0.08,0.02-0.15,0l-0.95-0.28
				c-0.04-0.02-0.06-0.04-0.08-0.08s0-0.1,0.04-0.19c0.27-0.5,0.67-0.89,1.2-1.17s1.17-0.41,1.94-0.41c0.67,0,1.22,0.1,1.65,0.29
				c0.43,0.19,0.75,0.47,0.96,0.83s0.31,0.78,0.31,1.27V42c0,0.09-0.02,0.16-0.05,0.19s-0.09,0.05-0.16,0.05h-0.95
				c-0.07,0-0.12-0.03-0.15-0.08c-0.04-0.05-0.06-0.12-0.07-0.2L176,41.43c-0.03-0.15-0.11-0.16-0.24-0.03
				C175.42,41.72,175.06,41.96,174.67,42.13z M175.76,38.54L175,38.6c-0.37,0.02-0.71,0.07-1.02,0.15s-0.57,0.18-0.79,0.31
				c-0.22,0.13-0.39,0.29-0.52,0.47s-0.19,0.39-0.19,0.64c0,0.36,0.13,0.65,0.38,0.86s0.6,0.31,1.04,0.31
				c0.28,0,0.54-0.05,0.79-0.15s0.46-0.22,0.65-0.37c0.19-0.16,0.33-0.32,0.44-0.49s0.16-0.33,0.16-0.49v-1.09
				C175.95,38.6,175.89,38.53,175.76,38.54z"/>
			<path class="st7" d="M179.29,42.02v-6.99c0-0.14,0.06-0.21,0.18-0.21h1.09c0.11,0,0.17,0.06,0.17,0.18v0.77
				c0,0.05,0.01,0.08,0.04,0.09s0.06,0,0.1-0.05c0.29-0.23,0.56-0.44,0.81-0.61c0.25-0.17,0.51-0.3,0.78-0.39s0.55-0.13,0.86-0.13
				c0.53,0,0.97,0.12,1.3,0.37c0.34,0.25,0.56,0.54,0.69,0.89c0.02,0.04,0.04,0.05,0.08,0.04c0.03-0.01,0.07-0.03,0.1-0.07
				c0.27-0.25,0.54-0.47,0.81-0.65s0.55-0.32,0.83-0.43c0.28-0.1,0.57-0.15,0.88-0.15c0.67,0,1.2,0.2,1.58,0.59s0.57,0.92,0.57,1.58
				v5.14c0,0.17-0.08,0.25-0.25,0.25h-1.04c-0.07,0-0.11-0.02-0.15-0.05c-0.03-0.03-0.05-0.09-0.05-0.18v-4.9
				c0-0.41-0.1-0.73-0.31-0.97s-0.51-0.35-0.92-0.35c-0.24,0-0.48,0.05-0.7,0.14s-0.43,0.21-0.61,0.34
				c-0.18,0.14-0.34,0.27-0.48,0.4c-0.07,0.07-0.11,0.13-0.14,0.18c-0.03,0.06-0.04,0.13-0.04,0.22v4.9c0,0.17-0.08,0.25-0.25,0.25
				h-1.02c-0.07,0-0.12-0.02-0.15-0.05c-0.04-0.03-0.06-0.09-0.06-0.18v-4.9c0-0.41-0.1-0.73-0.29-0.97s-0.51-0.35-0.94-0.35
				c-0.36,0-0.68,0.09-0.97,0.26c-0.29,0.17-0.63,0.44-1,0.79V42c0,0.16-0.09,0.24-0.27,0.24h-0.99
				C179.36,42.24,179.29,42.17,179.29,42.02z"/>
			<path class="st7" d="M193.46,40.19c0.2,0.34,0.47,0.61,0.81,0.81s0.72,0.3,1.14,0.3c0.43,0,0.81-0.09,1.15-0.27
				s0.64-0.45,0.92-0.83c0.03-0.04,0.06-0.06,0.08-0.06c0.03,0,0.07,0.01,0.13,0.03l0.71,0.34c0.1,0.05,0.11,0.12,0.03,0.22
				c-0.26,0.38-0.55,0.7-0.86,0.94c-0.31,0.24-0.66,0.42-1.04,0.53c-0.38,0.11-0.81,0.17-1.27,0.17c-0.71,0-1.33-0.16-1.88-0.48
				s-0.97-0.76-1.28-1.33s-0.47-1.22-0.47-1.96c0-0.81,0.16-1.51,0.48-2.09c0.32-0.58,0.75-1.04,1.29-1.36
				c0.55-0.32,1.15-0.48,1.83-0.48c0.69,0,1.3,0.15,1.81,0.46s0.92,0.74,1.21,1.31s0.43,1.26,0.43,2.07c0,0.08-0.01,0.16-0.03,0.22
				s-0.08,0.09-0.18,0.09h-5.18c-0.05,0-0.08,0.02-0.1,0.06s-0.04,0.1-0.04,0.16C193.16,39.47,193.26,39.85,193.46,40.19z
				 M196.98,37.94c0.1,0,0.17-0.01,0.2-0.04c0.03-0.03,0.04-0.08,0.04-0.15c0-0.35-0.08-0.69-0.23-1.01s-0.37-0.57-0.66-0.77
				c-0.29-0.2-0.64-0.29-1.06-0.29c-0.44,0-0.81,0.1-1.13,0.31c-0.31,0.21-0.55,0.49-0.71,0.83s-0.25,0.71-0.25,1.11L196.98,37.94z"
				/>
			<path class="st7" d="M203.92,35.91c-0.32-0.17-0.7-0.25-1.13-0.25c-0.46,0-0.84,0.09-1.14,0.28s-0.46,0.45-0.46,0.78
				c0,0.16,0.07,0.32,0.2,0.48c0.13,0.16,0.41,0.3,0.84,0.42l1.72,0.49c0.68,0.18,1.17,0.44,1.47,0.8c0.3,0.35,0.45,0.76,0.45,1.22
				c0,0.47-0.13,0.87-0.4,1.2c-0.27,0.33-0.63,0.59-1.11,0.78s-1.01,0.28-1.62,0.28c-0.76,0-1.43-0.15-2-0.44
				c-0.56-0.29-0.96-0.66-1.2-1.1c-0.02-0.06-0.03-0.1-0.03-0.15s0.02-0.08,0.06-0.1l0.69-0.36c0.07-0.04,0.12-0.05,0.16-0.05
				s0.07,0.03,0.09,0.06c0.15,0.21,0.32,0.41,0.52,0.57c0.2,0.17,0.43,0.3,0.71,0.4c0.28,0.1,0.62,0.15,1.01,0.15
				c0.33,0,0.62-0.04,0.89-0.13s0.47-0.21,0.62-0.37s0.22-0.34,0.22-0.56s-0.09-0.42-0.27-0.58c-0.18-0.16-0.5-0.31-0.96-0.43
				l-1.43-0.36c-0.71-0.19-1.22-0.44-1.53-0.77s-0.46-0.72-0.46-1.18s0.12-0.86,0.36-1.2s0.58-0.61,1.03-0.81
				c0.44-0.2,0.96-0.29,1.56-0.29c0.65,0,1.23,0.12,1.72,0.37s0.87,0.56,1.12,0.94c0.03,0.04,0.05,0.08,0.06,0.12
				c0.01,0.04-0.01,0.08-0.07,0.12l-0.73,0.38c-0.04,0.02-0.08,0.02-0.12,0.01s-0.08-0.03-0.12-0.07
				C204.49,36.3,204.24,36.08,203.92,35.91z"/>
			<path class="st7" d="M208.85,40.19c0.2,0.34,0.47,0.61,0.81,0.81s0.72,0.3,1.14,0.3c0.43,0,0.81-0.09,1.15-0.27
				s0.64-0.45,0.92-0.83c0.03-0.04,0.06-0.06,0.08-0.06c0.03,0,0.07,0.01,0.13,0.03l0.71,0.34c0.1,0.05,0.11,0.12,0.03,0.22
				c-0.26,0.38-0.55,0.7-0.86,0.94c-0.31,0.24-0.66,0.42-1.04,0.53c-0.38,0.11-0.81,0.17-1.27,0.17c-0.71,0-1.33-0.16-1.88-0.48
				s-0.97-0.76-1.28-1.33s-0.47-1.22-0.47-1.96c0-0.81,0.16-1.51,0.48-2.09c0.32-0.58,0.75-1.04,1.29-1.36
				c0.55-0.32,1.15-0.48,1.83-0.48c0.69,0,1.3,0.15,1.81,0.46s0.92,0.74,1.21,1.31s0.43,1.26,0.43,2.07c0,0.08-0.01,0.16-0.03,0.22
				s-0.08,0.09-0.18,0.09h-5.18c-0.05,0-0.08,0.02-0.1,0.06s-0.04,0.1-0.04,0.16C208.54,39.47,208.64,39.85,208.85,40.19z
				 M212.37,37.94c0.1,0,0.17-0.01,0.2-0.04c0.03-0.03,0.04-0.08,0.04-0.15c0-0.35-0.08-0.69-0.23-1.01s-0.37-0.57-0.66-0.77
				c-0.29-0.2-0.64-0.29-1.06-0.29c-0.44,0-0.81,0.1-1.13,0.31c-0.31,0.21-0.55,0.49-0.71,0.83s-0.25,0.71-0.25,1.11L212.37,37.94z"
				/>
			<path class="st7" d="M216.99,40.19c0.2,0.34,0.47,0.61,0.81,0.81s0.72,0.3,1.14,0.3c0.43,0,0.81-0.09,1.15-0.27
				s0.64-0.45,0.92-0.83c0.03-0.04,0.06-0.06,0.08-0.06c0.03,0,0.07,0.01,0.13,0.03l0.71,0.34c0.1,0.05,0.11,0.12,0.03,0.22
				c-0.26,0.38-0.55,0.7-0.86,0.94c-0.31,0.24-0.66,0.42-1.04,0.53c-0.38,0.11-0.81,0.17-1.27,0.17c-0.71,0-1.33-0.16-1.88-0.48
				s-0.97-0.76-1.28-1.33s-0.47-1.22-0.47-1.96c0-0.81,0.16-1.51,0.48-2.09c0.32-0.58,0.75-1.04,1.29-1.36
				c0.55-0.32,1.15-0.48,1.83-0.48c0.69,0,1.3,0.15,1.81,0.46s0.92,0.74,1.21,1.31s0.43,1.26,0.43,2.07c0,0.08-0.01,0.16-0.03,0.22
				s-0.08,0.09-0.18,0.09h-5.18c-0.05,0-0.08,0.02-0.1,0.06s-0.04,0.1-0.04,0.16C216.69,39.47,216.79,39.85,216.99,40.19z
				 M220.51,37.94c0.1,0,0.17-0.01,0.2-0.04c0.03-0.03,0.04-0.08,0.04-0.15c0-0.35-0.08-0.69-0.23-1.01s-0.37-0.57-0.66-0.77
				c-0.29-0.2-0.64-0.29-1.06-0.29c-0.44,0-0.81,0.1-1.13,0.31c-0.31,0.21-0.55,0.49-0.71,0.83s-0.25,0.71-0.25,1.11L220.51,37.94z"
				/>
			<path class="st7" d="M228.78,42.18c-0.04-0.04-0.06-0.09-0.06-0.17v-0.53c0-0.07-0.02-0.1-0.06-0.11
				c-0.04-0.01-0.08,0.01-0.13,0.06c-0.12,0.11-0.28,0.24-0.46,0.39s-0.42,0.28-0.7,0.39s-0.61,0.17-0.99,0.17
				c-0.58,0-1.1-0.14-1.56-0.42c-0.46-0.28-0.83-0.7-1.09-1.25c-0.27-0.56-0.4-1.25-0.4-2.08c0-0.79,0.14-1.48,0.42-2.07
				s0.66-1.05,1.15-1.38c0.49-0.33,1.03-0.5,1.64-0.5c0.44,0,0.81,0.07,1.11,0.21s0.58,0.32,0.82,0.53
				c0.07,0.07,0.13,0.09,0.17,0.08s0.06-0.07,0.06-0.17v-3.26c0-0.14,0.06-0.21,0.18-0.21H230c0.12,0,0.18,0.07,0.18,0.21V42
				c0,0.08-0.02,0.14-0.06,0.18s-0.11,0.06-0.21,0.06h-0.97C228.88,42.24,228.82,42.22,228.78,42.18z M227.88,35.93
				c-0.27-0.15-0.57-0.22-0.91-0.22c-0.41,0-0.78,0.11-1.1,0.32s-0.57,0.53-0.76,0.96c-0.18,0.42-0.27,0.96-0.27,1.6
				c0,0.65,0.09,1.19,0.28,1.6s0.44,0.71,0.75,0.9c0.31,0.19,0.66,0.29,1.03,0.29c0.34,0,0.64-0.08,0.91-0.24s0.49-0.36,0.64-0.6
				c0.16-0.24,0.24-0.47,0.24-0.71v-3.28C228.42,36.29,228.15,36.08,227.88,35.93z"/>
		</g>
	</g>
	<g>
		<g>
			<path class="st7" d="M205.77,50.82c0.49,0.24,0.92,0.59,1.28,1.04c0.36,0.46,0.65,1.02,0.85,1.69c0.2,0.67,0.3,1.43,0.3,2.27
				c0,1.13-0.17,2.09-0.52,2.88s-0.83,1.39-1.44,1.8s-1.3,0.62-2.07,0.62c-0.78,0-1.47-0.21-2.07-0.62
				c-0.61-0.41-1.08-1.01-1.44-1.79c-0.35-0.78-0.52-1.74-0.52-2.87c0-0.86,0.1-1.62,0.31-2.28c0.21-0.66,0.49-1.23,0.85-1.69
				s0.79-0.81,1.28-1.05c0.49-0.24,1.02-0.36,1.6-0.36C204.75,50.47,205.28,50.59,205.77,50.82z M205.42,59.46
				c0.34-0.27,0.6-0.71,0.78-1.3s0.27-1.37,0.27-2.33c0-0.98-0.09-1.77-0.28-2.38s-0.45-1.05-0.8-1.33s-0.76-0.42-1.23-0.42
				s-0.87,0.14-1.22,0.42c-0.34,0.28-0.61,0.73-0.8,1.34s-0.29,1.4-0.29,2.37c0,0.96,0.1,1.74,0.29,2.33s0.46,1.03,0.8,1.3
				c0.35,0.28,0.76,0.41,1.23,0.41C204.66,59.88,205.08,59.74,205.42,59.46z"/>
			<path class="st7" d="M211.42,60.74c0,0.17-0.1,0.25-0.29,0.25h-1.19c-0.16,0-0.24-0.07-0.24-0.22v-1.39c0-0.13,0.06-0.2,0.17-0.2
				h1.4c0.1,0,0.15,0.06,0.15,0.18L211.42,60.74L211.42,60.74z"/>
			<path class="st7" d="M218.29,59.86v0.95c0,0.05-0.02,0.09-0.05,0.13S218.15,61,218.08,61h-5.1c-0.13,0-0.2-0.06-0.2-0.17v-0.97
				c0-0.1,0.06-0.15,0.18-0.15h1.67c0.08,0,0.13-0.03,0.13-0.08V52.5c0-0.11-0.05-0.15-0.15-0.13L213,52.93
				c-0.15,0.04-0.22-0.03-0.22-0.2v-0.67c0-0.08,0.01-0.14,0.04-0.16c0.02-0.02,0.06-0.05,0.12-0.09l2.17-1.08
				c0.1-0.05,0.18-0.08,0.25-0.1s0.14-0.03,0.23-0.03h0.7c0.12,0,0.18,0.07,0.18,0.2v8.78c0,0.08,0.03,0.13,0.1,0.13h1.54
				C218.22,59.71,218.29,59.76,218.29,59.86z"/>
			<path class="st7" d="M225,59.86v0.95c0,0.05-0.02,0.09-0.05,0.13S224.86,61,224.79,61h-5.1c-0.13,0-0.2-0.06-0.2-0.17v-0.97
				c0-0.1,0.06-0.15,0.18-0.15h1.67c0.08,0,0.13-0.03,0.13-0.08V52.5c0-0.11-0.05-0.15-0.15-0.13l-1.61,0.56
				c-0.15,0.04-0.22-0.03-0.22-0.2v-0.67c0-0.08,0.01-0.14,0.04-0.16c0.02-0.02,0.06-0.05,0.12-0.09l2.17-1.08
				c0.1-0.05,0.18-0.08,0.25-0.1s0.14-0.03,0.23-0.03h0.7c0.12,0,0.18,0.07,0.18,0.2v8.78c0,0.08,0.03,0.13,0.1,0.13h1.54
				C224.93,59.71,225,59.76,225,59.86z"/>
			<path class="st7" d="M228.84,54.64c-0.08,0-0.13,0.05-0.13,0.14v4.1c0,0.4,0.08,0.67,0.22,0.82c0.15,0.14,0.38,0.22,0.69,0.22
				h0.9c0.06,0,0.1,0.02,0.13,0.05s0.04,0.07,0.04,0.12v0.6c0,0.12-0.07,0.2-0.21,0.24c-0.12,0.02-0.27,0.03-0.45,0.04
				c-0.18,0.01-0.35,0.02-0.53,0.02S229.19,61,229.05,61c-0.61,0-1.06-0.14-1.36-0.43c-0.3-0.28-0.46-0.73-0.46-1.32v-4.44
				c0-0.11-0.05-0.17-0.14-0.17h-1.05c-0.12,0-0.18-0.06-0.18-0.17v-0.74c0-0.1,0.06-0.15,0.17-0.15h1.12
				c0.07,0,0.11-0.04,0.11-0.13l0.17-2.2c0.01-0.13,0.07-0.2,0.17-0.2h0.97c0.12,0,0.18,0.07,0.18,0.22v2.17
				c0,0.08,0.04,0.13,0.13,0.13h1.68c0.11,0,0.17,0.05,0.17,0.15v0.74c0,0.11-0.07,0.17-0.2,0.17L228.84,54.64L228.84,54.64z"/>
		</g>
	</g>
	<g>
		<g>
			<path class="st7" d="M106.21,316.61c0.44,0.15,0.84,0.37,1.2,0.64c0.35,0.27,0.65,0.58,0.88,0.93s0.38,0.73,0.44,1.14
				c0.02,0.1,0.02,0.17,0,0.2s-0.06,0.05-0.13,0.06l-1.3,0.08c-0.06,0.01-0.09,0-0.11-0.03c-0.02-0.03-0.04-0.07-0.06-0.13
				c-0.12-0.56-0.38-1.02-0.77-1.37s-0.89-0.53-1.5-0.53c-0.89,0-1.57,0.34-2.05,1.01s-0.72,1.7-0.72,3.08
				c0,1.36,0.24,2.38,0.71,3.05c0.47,0.67,1.18,1.01,2.12,1.01c0.62,0,1.15-0.15,1.58-0.46s0.77-0.8,1.04-1.49
				c0.03-0.06,0.1-0.09,0.21-0.07l0.99,0.24c0.03,0.01,0.06,0.03,0.08,0.06c0.03,0.03,0.03,0.09,0.01,0.18
				c-0.07,0.24-0.17,0.49-0.32,0.76c-0.15,0.26-0.34,0.52-0.56,0.76c-0.22,0.25-0.49,0.47-0.8,0.67c-0.31,0.2-0.66,0.35-1.04,0.47
				c-0.39,0.12-0.81,0.18-1.27,0.18c-0.94,0-1.75-0.22-2.43-0.66s-1.2-1.06-1.56-1.86s-0.55-1.75-0.55-2.84
				c0-1.1,0.18-2.05,0.55-2.84c0.36-0.79,0.88-1.4,1.55-1.83c0.67-0.42,1.47-0.64,2.39-0.64
				C105.3,316.38,105.77,316.46,106.21,316.61z"/>
			<path class="st7" d="M111.76,326.57c-0.54-0.32-0.96-0.77-1.26-1.34s-0.45-1.23-0.45-1.98c0-0.77,0.15-1.45,0.46-2.04
				c0.31-0.58,0.74-1.04,1.28-1.36s1.17-0.49,1.87-0.49c0.73,0,1.36,0.17,1.9,0.5s0.95,0.79,1.25,1.37s0.45,1.25,0.45,2.01
				c0,0.75-0.15,1.41-0.46,1.98c-0.3,0.57-0.73,1.02-1.27,1.35c-0.54,0.33-1.17,0.49-1.89,0.49S112.3,326.89,111.76,326.57z
				 M114.8,325.66c0.31-0.22,0.54-0.54,0.71-0.96c0.16-0.42,0.25-0.92,0.25-1.5s-0.08-1.09-0.25-1.51c-0.16-0.42-0.4-0.74-0.71-0.97
				s-0.69-0.34-1.13-0.34c-0.44,0-0.81,0.11-1.13,0.34c-0.31,0.23-0.55,0.55-0.72,0.97s-0.25,0.92-0.25,1.51s0.08,1.09,0.25,1.5
				c0.17,0.42,0.41,0.73,0.72,0.96c0.31,0.22,0.69,0.34,1.14,0.34C114.12,326,114.49,325.89,114.8,325.66z"/>
			<path class="st7" d="M123.37,319.61c0.39,0.17,0.71,0.4,0.98,0.69c0.27,0.29,0.48,0.59,0.64,0.92c0.06,0.13,0.02,0.21-0.1,0.24
				l-0.99,0.17c-0.08,0.02-0.14-0.02-0.18-0.11c-0.16-0.24-0.32-0.44-0.48-0.6s-0.33-0.28-0.52-0.38s-0.4-0.14-0.64-0.14
				c-0.43,0-0.8,0.11-1.13,0.33c-0.32,0.22-0.57,0.54-0.74,0.96c-0.17,0.42-0.26,0.93-0.26,1.53s0.09,1.11,0.27,1.53
				s0.43,0.75,0.76,0.97s0.71,0.33,1.16,0.33c0.44,0,0.81-0.11,1.11-0.34c0.3-0.22,0.57-0.54,0.83-0.95
				c0.03-0.04,0.05-0.06,0.08-0.07c0.02-0.01,0.06,0,0.12,0.01l0.74,0.22c0.07,0.03,0.09,0.1,0.06,0.21
				c-0.11,0.23-0.26,0.47-0.44,0.7s-0.4,0.44-0.64,0.62c-0.25,0.18-0.53,0.33-0.86,0.44c-0.33,0.11-0.7,0.17-1.11,0.17
				c-0.7,0-1.32-0.16-1.86-0.48s-0.96-0.77-1.26-1.34s-0.46-1.24-0.46-2c0-0.77,0.15-1.44,0.46-2.02s0.73-1.03,1.27-1.36
				c0.54-0.33,1.15-0.5,1.84-0.5C122.53,319.35,122.99,319.44,123.37,319.61z"/>
			<path class="st7" d="M127.78,326.57c-0.54-0.32-0.96-0.77-1.26-1.34s-0.45-1.23-0.45-1.98c0-0.77,0.15-1.45,0.46-2.04
				c0.31-0.58,0.74-1.04,1.28-1.36c0.54-0.32,1.17-0.49,1.87-0.49c0.73,0,1.36,0.17,1.9,0.5s0.95,0.79,1.25,1.37
				s0.45,1.25,0.45,2.01c0,0.75-0.15,1.41-0.46,1.98c-0.3,0.57-0.73,1.02-1.27,1.35c-0.54,0.33-1.17,0.49-1.89,0.49
				S128.32,326.89,127.78,326.57z M130.81,325.66c0.31-0.22,0.54-0.54,0.71-0.96c0.16-0.42,0.25-0.92,0.25-1.5s-0.08-1.09-0.25-1.51
				c-0.16-0.42-0.4-0.74-0.71-0.97c-0.31-0.23-0.69-0.34-1.13-0.34s-0.81,0.11-1.13,0.34c-0.31,0.23-0.55,0.55-0.72,0.97
				s-0.25,0.92-0.25,1.51s0.08,1.09,0.25,1.5c0.17,0.42,0.41,0.73,0.72,0.96c0.31,0.22,0.69,0.34,1.14,0.34
				C130.13,326,130.51,325.89,130.81,325.66z"/>
			<path class="st7" d="M134.85,326.69v-6.99c0-0.14,0.06-0.21,0.18-0.21h1.11c0.11,0,0.17,0.06,0.17,0.18v0.77
				c0,0.05,0.01,0.08,0.04,0.09s0.06,0,0.11-0.05c0.29-0.23,0.56-0.44,0.83-0.61c0.26-0.17,0.53-0.3,0.8-0.39
				c0.27-0.09,0.56-0.13,0.88-0.13c0.71,0,1.26,0.2,1.65,0.59c0.39,0.39,0.59,0.91,0.59,1.55v5.17c0,0.17-0.08,0.25-0.24,0.25h-1.04
				c-0.07,0-0.13-0.02-0.16-0.05s-0.05-0.09-0.05-0.18v-4.9c0-0.41-0.11-0.73-0.32-0.97s-0.55-0.35-0.99-0.35
				c-0.25,0-0.49,0.04-0.7,0.12c-0.21,0.08-0.43,0.2-0.64,0.35s-0.45,0.35-0.71,0.58v5.15c0,0.16-0.09,0.24-0.27,0.24h-0.99
				C134.92,326.91,134.85,326.84,134.85,326.69z"/>
			<path class="st7" d="M146.82,325.63c0.33-0.2,0.66-0.47,0.97-0.81v-5.1c0-0.16,0.09-0.24,0.27-0.24h1.01
				c0.15,0,0.22,0.07,0.22,0.22l-0.03,7c0,0.13-0.06,0.2-0.17,0.2H148c-0.11,0-0.17-0.06-0.17-0.18v-0.78
				c0-0.05-0.01-0.08-0.04-0.09c-0.02-0.01-0.06,0-0.11,0.05c-0.48,0.43-0.91,0.73-1.3,0.9c-0.39,0.17-0.79,0.25-1.2,0.25
				c-0.42,0-0.8-0.09-1.13-0.27s-0.59-0.43-0.78-0.76s-0.29-0.71-0.29-1.15v-5.14c0-0.17,0.08-0.25,0.25-0.25h1.02
				c0.14,0,0.21,0.07,0.21,0.22v4.86c0,0.4,0.11,0.73,0.34,0.98s0.54,0.38,0.95,0.38C146.14,325.93,146.49,325.83,146.82,325.63z"/>
			<path class="st7" d="M153.56,320.56c-0.08,0-0.13,0.05-0.13,0.14v4.1c0,0.4,0.08,0.67,0.22,0.82c0.15,0.14,0.38,0.22,0.69,0.22
				h0.9c0.06,0,0.1,0.02,0.13,0.05s0.04,0.07,0.04,0.12v0.6c0,0.12-0.07,0.2-0.21,0.24c-0.12,0.02-0.27,0.03-0.45,0.04
				s-0.35,0.02-0.53,0.02s-0.32,0.01-0.46,0.01c-0.61,0-1.06-0.14-1.36-0.43c-0.3-0.28-0.46-0.73-0.46-1.32v-4.44
				c0-0.11-0.05-0.17-0.14-0.17h-1.05c-0.12,0-0.18-0.06-0.18-0.17v-0.74c0-0.1,0.06-0.15,0.17-0.15h1.12
				c0.07,0,0.11-0.04,0.11-0.13l0.17-2.2c0.01-0.13,0.07-0.2,0.17-0.2h0.97c0.12,0,0.18,0.07,0.18,0.22v2.17
				c0,0.08,0.04,0.13,0.13,0.13h1.68c0.11,0,0.17,0.05,0.17,0.15v0.74c0,0.11-0.07,0.17-0.2,0.17h-1.68L153.56,320.56L153.56,320.56
				z"/>
		</g>
	</g>
	<g>
		<g>
			<path class="st7" d="M125.95,335.52c0.49,0.24,0.92,0.59,1.28,1.04c0.36,0.46,0.65,1.02,0.85,1.69c0.2,0.67,0.3,1.43,0.3,2.27
				c0,1.13-0.17,2.09-0.52,2.88s-0.83,1.39-1.44,1.8c-0.61,0.41-1.3,0.62-2.07,0.62c-0.78,0-1.47-0.21-2.07-0.62
				c-0.61-0.41-1.08-1.01-1.44-1.79c-0.35-0.78-0.52-1.74-0.52-2.87c0-0.86,0.1-1.62,0.31-2.28s0.49-1.23,0.85-1.69
				s0.79-0.81,1.28-1.05s1.02-0.36,1.6-0.36C124.93,335.17,125.46,335.29,125.95,335.52z M125.6,344.16c0.34-0.27,0.6-0.71,0.78-1.3
				s0.27-1.37,0.27-2.33c0-0.98-0.09-1.77-0.28-2.38s-0.45-1.05-0.8-1.33s-0.76-0.42-1.23-0.42s-0.87,0.14-1.22,0.42
				c-0.34,0.28-0.61,0.73-0.8,1.34s-0.29,1.4-0.29,2.37c0,0.96,0.1,1.74,0.29,2.33s0.46,1.03,0.8,1.3c0.35,0.28,0.76,0.41,1.23,0.41
				C124.85,344.58,125.26,344.44,125.6,344.16z"/>
			<path class="st7" d="M131.6,345.44c0,0.17-0.1,0.25-0.29,0.25h-1.19c-0.16,0-0.24-0.07-0.24-0.22v-1.39c0-0.13,0.06-0.2,0.17-0.2
				h1.4c0.1,0,0.15,0.06,0.15,0.18L131.6,345.44L131.6,345.44z"/>
			<path class="st7" d="M136.28,341.3c0.41-0.38,0.75-0.72,1.02-1s0.49-0.55,0.65-0.79s0.28-0.47,0.35-0.69s0.1-0.45,0.1-0.69
				c0-0.36-0.09-0.67-0.27-0.92c-0.18-0.25-0.42-0.44-0.7-0.57c-0.29-0.13-0.59-0.2-0.93-0.2c-0.26,0-0.53,0.05-0.8,0.14
				s-0.53,0.24-0.78,0.45c-0.25,0.21-0.49,0.48-0.7,0.83c-0.02,0.05-0.06,0.07-0.11,0.08s-0.12,0-0.2-0.04l-0.81-0.45
				c-0.08-0.06-0.12-0.11-0.13-0.17c-0.01-0.06,0.01-0.12,0.06-0.19c0.44-0.66,0.97-1.15,1.6-1.46s1.29-0.46,2-0.46
				c0.63,0,1.21,0.11,1.73,0.34s0.93,0.56,1.24,1c0.31,0.44,0.46,1,0.46,1.66c0,0.39-0.07,0.77-0.21,1.12s-0.37,0.72-0.69,1.1
				s-0.74,0.81-1.27,1.28l-2.76,2.45c-0.06,0.05-0.08,0.09-0.07,0.12s0.06,0.05,0.15,0.05h4.75c0.14,0,0.21,0.06,0.21,0.18v1.04
				c0,0.06-0.02,0.1-0.05,0.14s-0.09,0.06-0.16,0.06h-6.75c-0.1,0-0.17-0.02-0.21-0.05c-0.04-0.03-0.06-0.1-0.06-0.19v-0.74
				c0-0.07,0.01-0.12,0.03-0.17s0.06-0.11,0.13-0.19c0.07-0.07,0.17-0.17,0.3-0.28L136.28,341.3z"/>
			<path class="st7" d="M147.12,335.31c0.31,0.09,0.59,0.21,0.83,0.36s0.45,0.31,0.63,0.49c0.18,0.18,0.31,0.36,0.41,0.55
				c0.02,0.05,0.03,0.09,0.04,0.14c0,0.05-0.03,0.08-0.1,0.11l-1.02,0.38c-0.06,0.03-0.1,0.03-0.14-0.01
				c-0.04-0.03-0.07-0.07-0.1-0.1c-0.19-0.24-0.4-0.44-0.64-0.59s-0.55-0.22-0.93-0.22c-0.61,0-1.11,0.15-1.51,0.44
				s-0.7,0.7-0.89,1.21s-0.29,1.1-0.29,1.75c0,0.16,0.02,0.26,0.05,0.3c0.03,0.04,0.11,0.04,0.22-0.02
				c0.34-0.16,0.71-0.31,1.08-0.44c0.38-0.14,0.83-0.2,1.36-0.2c0.72,0,1.34,0.13,1.86,0.39s0.91,0.62,1.19,1.08
				s0.41,0.99,0.41,1.58c0,0.65-0.17,1.23-0.5,1.73s-0.79,0.89-1.35,1.17c-0.57,0.28-1.2,0.42-1.9,0.42c-0.85,0-1.58-0.21-2.19-0.62
				s-1.08-1-1.41-1.76c-0.33-0.77-0.5-1.68-0.5-2.76c0-1.15,0.18-2.13,0.53-2.95s0.86-1.45,1.51-1.89s1.42-0.66,2.31-0.66
				C146.46,335.18,146.81,335.23,147.12,335.31z M145.09,340.7c-0.28,0.05-0.54,0.12-0.78,0.21c-0.25,0.09-0.46,0.19-0.62,0.3
				c-0.09,0.07-0.16,0.13-0.2,0.2s-0.06,0.19-0.06,0.36c0,0.33,0.05,0.66,0.15,0.99c0.1,0.33,0.25,0.64,0.44,0.93
				c0.2,0.29,0.44,0.52,0.74,0.69s0.64,0.26,1.04,0.26s0.76-0.09,1.08-0.27s0.57-0.43,0.76-0.75c0.19-0.32,0.28-0.67,0.28-1.06
				c0-0.37-0.09-0.7-0.26-0.99s-0.41-0.52-0.72-0.69s-0.67-0.25-1.09-0.25C145.61,340.63,145.36,340.65,145.09,340.7z"/>
			<path class="st7" d="M153.57,339.34c-0.08,0-0.13,0.05-0.13,0.14v4.1c0,0.4,0.08,0.67,0.22,0.82c0.15,0.14,0.38,0.22,0.69,0.22
				h0.9c0.06,0,0.1,0.02,0.13,0.05s0.04,0.07,0.04,0.12v0.6c0,0.12-0.07,0.2-0.21,0.24c-0.12,0.02-0.27,0.03-0.45,0.04
				s-0.35,0.02-0.53,0.02s-0.32,0.01-0.46,0.01c-0.61,0-1.06-0.14-1.36-0.43c-0.3-0.28-0.46-0.73-0.46-1.32v-4.44
				c0-0.11-0.05-0.17-0.14-0.17h-1.05c-0.12,0-0.18-0.06-0.18-0.17v-0.74c0-0.1,0.06-0.15,0.17-0.15h1.12
				c0.07,0,0.11-0.04,0.11-0.13l0.17-2.2c0.01-0.13,0.07-0.2,0.17-0.2h0.97c0.12,0,0.18,0.07,0.18,0.22v2.17
				c0,0.08,0.04,0.13,0.13,0.13h1.68c0.11,0,0.17,0.05,0.17,0.15v0.74c0,0.11-0.07,0.17-0.2,0.17h-1.68L153.57,339.34L153.57,339.34
				z"/>
		</g>
	</g>
	<g>
		<g>
			<path class="st7" d="M573.14,56.19c-0.68-0.42-1.2-1.02-1.57-1.81c-0.36-0.79-0.55-1.74-0.55-2.86c0-1.13,0.19-2.1,0.56-2.9
				s0.9-1.42,1.58-1.84c0.68-0.42,1.49-0.64,2.42-0.64c0.92,0,1.72,0.21,2.4,0.64c0.68,0.42,1.2,1.04,1.57,1.83
				c0.37,0.8,0.55,1.76,0.55,2.89c0,1.12-0.18,2.07-0.55,2.86c-0.36,0.79-0.89,1.39-1.57,1.81c-0.68,0.42-1.49,0.63-2.42,0.63
				C574.63,56.81,573.82,56.61,573.14,56.19z M577.67,54.59c0.45-0.65,0.68-1.67,0.68-3.07c0-1.42-0.23-2.46-0.69-3.14
				s-1.15-1.01-2.07-1.01c-0.93,0-1.63,0.34-2.1,1.02s-0.7,1.72-0.7,3.13c0,1.39,0.23,2.41,0.7,3.07s1.17,0.98,2.1,0.98
				C576.52,55.57,577.21,55.24,577.67,54.59z"/>
			<path class="st7" d="M583.41,56.41c0,0.1-0.02,0.17-0.06,0.21s-0.12,0.06-0.23,0.06h-0.95c-0.17,0-0.25-0.07-0.25-0.22l0.03-9.95
				c0-0.14,0.06-0.21,0.18-0.21h1.11c0.12,0,0.18,0.07,0.18,0.21v9.9C583.42,56.41,583.41,56.41,583.41,56.41z"/>
			<path class="st7" d="M586.91,47.77c0,0.2-0.09,0.29-0.28,0.29h-1.04c-0.1,0-0.17-0.02-0.2-0.07s-0.05-0.11-0.05-0.2v-1.27
				c0-0.16,0.07-0.24,0.21-0.24h1.16c0.13,0,0.2,0.08,0.2,0.22V47.77z M586.87,56.41c0,0.1-0.02,0.17-0.06,0.21
				s-0.12,0.06-0.22,0.06h-0.95c-0.1,0-0.17-0.02-0.2-0.05s-0.05-0.09-0.05-0.18v-6.99c0-0.14,0.06-0.21,0.2-0.21h1.12
				c0.11,0,0.17,0.07,0.17,0.2v6.96H586.87z"/>
			<path class="st7" d="M595.27,49.32c0.03,0.05,0.03,0.1,0,0.17l-2.83,6.94c-0.06,0.16-0.18,0.24-0.36,0.24h-0.66
				c-0.19,0-0.31-0.07-0.38-0.22l-2.81-6.94c-0.02-0.07-0.01-0.14,0.02-0.18c0.03-0.05,0.09-0.07,0.16-0.07h1.16
				c0.06,0,0.11,0.02,0.15,0.05c0.05,0.03,0.07,0.08,0.08,0.13l2.02,5.07c0.07,0.18,0.14,0.17,0.22-0.01l1.99-5.07
				c0.03-0.05,0.06-0.09,0.1-0.12s0.09-0.05,0.15-0.05h0.83C595.19,49.25,595.24,49.28,595.27,49.32z"/>
			<path class="st7" d="M598.05,54.62c0.2,0.34,0.47,0.61,0.81,0.81s0.72,0.3,1.14,0.3c0.43,0,0.81-0.09,1.15-0.27
				s0.64-0.45,0.92-0.83c0.03-0.04,0.06-0.06,0.08-0.06c0.03,0,0.07,0.01,0.13,0.03l0.71,0.34c0.1,0.05,0.11,0.12,0.03,0.22
				c-0.26,0.38-0.55,0.7-0.86,0.94c-0.31,0.24-0.66,0.42-1.04,0.53s-0.81,0.17-1.27,0.17c-0.71,0-1.33-0.16-1.88-0.48
				s-0.97-0.76-1.28-1.33s-0.47-1.22-0.47-1.96c0-0.81,0.16-1.51,0.48-2.09s0.75-1.04,1.29-1.36c0.55-0.32,1.15-0.48,1.83-0.48
				c0.69,0,1.3,0.15,1.81,0.46s0.92,0.74,1.21,1.31s0.43,1.26,0.43,2.07c0,0.08-0.01,0.16-0.03,0.22s-0.08,0.09-0.18,0.09h-5.18
				c-0.05,0-0.08,0.02-0.1,0.06c-0.02,0.04-0.04,0.1-0.04,0.16C597.75,53.9,597.85,54.28,598.05,54.62z M601.57,52.38
				c0.1,0,0.17-0.01,0.2-0.04c0.03-0.03,0.04-0.08,0.04-0.15c0-0.35-0.08-0.69-0.23-1.01c-0.15-0.32-0.37-0.57-0.66-0.77
				s-0.64-0.29-1.06-0.29c-0.44,0-0.81,0.1-1.13,0.31c-0.31,0.21-0.55,0.49-0.71,0.83s-0.25,0.71-0.25,1.11L601.57,52.38z"/>
		</g>
	</g>
	<g>
		<g>
			<path class="st7" d="M576.66,65.26c0.49,0.24,0.92,0.59,1.28,1.04c0.36,0.46,0.65,1.02,0.85,1.69c0.2,0.67,0.3,1.43,0.3,2.27
				c0,1.13-0.17,2.09-0.52,2.88c-0.35,0.79-0.83,1.39-1.44,1.8s-1.3,0.62-2.07,0.62c-0.78,0-1.47-0.21-2.07-0.62
				c-0.61-0.41-1.08-1.01-1.44-1.79c-0.35-0.78-0.52-1.74-0.52-2.87c0-0.86,0.1-1.62,0.31-2.28c0.21-0.66,0.49-1.23,0.85-1.69
				s0.79-0.81,1.28-1.05c0.49-0.24,1.02-0.36,1.6-0.36C575.64,64.9,576.17,65.02,576.66,65.26z M576.31,73.9
				c0.34-0.27,0.6-0.71,0.78-1.3c0.18-0.59,0.27-1.37,0.27-2.33c0-0.98-0.09-1.77-0.28-2.38s-0.45-1.05-0.8-1.33
				s-0.76-0.42-1.23-0.42s-0.87,0.14-1.22,0.42c-0.34,0.28-0.61,0.73-0.8,1.34s-0.29,1.4-0.29,2.37c0,0.96,0.1,1.74,0.29,2.33
				s0.46,1.03,0.8,1.3c0.35,0.28,0.76,0.41,1.23,0.41C575.56,74.31,575.97,74.17,576.31,73.9z"/>
			<path class="st7" d="M582.31,75.18c0,0.17-0.1,0.25-0.29,0.25h-1.19c-0.16,0-0.24-0.07-0.24-0.22v-1.39c0-0.13,0.06-0.2,0.17-0.2
				h1.4c0.1,0,0.15,0.06,0.15,0.18L582.31,75.18L582.31,75.18z"/>
			<path class="st7" d="M584.04,66.3c0.28-0.31,0.59-0.56,0.94-0.77s0.73-0.36,1.14-0.47c0.41-0.11,0.83-0.16,1.27-0.16
				c0.76,0,1.4,0.11,1.95,0.34c0.54,0.23,0.96,0.54,1.25,0.94s0.43,0.86,0.43,1.38c0,0.49-0.15,0.93-0.46,1.34
				c-0.3,0.41-0.73,0.7-1.27,0.89c-0.1,0.04-0.16,0.07-0.16,0.1s0.04,0.07,0.15,0.1c0.39,0.1,0.74,0.27,1.05,0.51
				c0.31,0.24,0.55,0.53,0.73,0.87c0.18,0.34,0.27,0.72,0.27,1.14c0,0.61-0.15,1.14-0.46,1.6c-0.3,0.46-0.76,0.81-1.37,1.07
				s-1.38,0.39-2.3,0.39c-0.49,0-0.95-0.06-1.39-0.18s-0.85-0.3-1.22-0.52s-0.71-0.51-0.99-0.85c-0.05-0.06-0.06-0.12-0.05-0.17
				c0.01-0.05,0.05-0.09,0.1-0.14l0.76-0.56c0.06-0.06,0.12-0.08,0.15-0.07s0.07,0.03,0.1,0.06c0.28,0.29,0.55,0.52,0.83,0.69
				c0.27,0.17,0.56,0.3,0.85,0.38c0.3,0.08,0.62,0.12,0.98,0.12c0.75,0,1.33-0.16,1.74-0.49c0.41-0.33,0.62-0.75,0.62-1.27
				c0-0.41-0.11-0.76-0.34-1.04c-0.23-0.28-0.53-0.49-0.9-0.64c-0.37-0.14-0.76-0.22-1.18-0.23l-1.22-0.01
				c-0.13,0-0.2-0.05-0.2-0.15v-0.91c0-0.09,0.07-0.14,0.2-0.15l0.98-0.03c0.46,0,0.86-0.08,1.21-0.23
				c0.35-0.15,0.63-0.36,0.83-0.63s0.31-0.56,0.31-0.89c0-0.29-0.08-0.55-0.25-0.78c-0.17-0.23-0.4-0.41-0.7-0.55
				s-0.64-0.2-1.02-0.2c-0.47,0-0.9,0.09-1.29,0.27c-0.39,0.18-0.77,0.44-1.13,0.8c-0.06,0.05-0.1,0.07-0.13,0.08
				c-0.03,0-0.08-0.02-0.15-0.08l-0.66-0.63C583.98,66.48,583.98,66.39,584.04,66.3z"/>
			<path class="st7" d="M597.59,65.08c0.05-0.02,0.13-0.04,0.23-0.04h1.2c0.12,0,0.18,0.07,0.18,0.2v6.16
				c0,0.09,0.04,0.14,0.13,0.14h1.26c0.14,0,0.21,0.06,0.21,0.17v0.84c0,0.14-0.07,0.21-0.21,0.21h-1.25
				c-0.09,0-0.14,0.05-0.14,0.14v2.3c0,0.16-0.09,0.24-0.27,0.24h-1.22c-0.15,0-0.22-0.07-0.22-0.22v-2.35c0-0.06-0.05-0.1-0.14-0.1
				h-4.42c-0.16,0-0.24-0.07-0.24-0.21v-0.85c0-0.07,0.02-0.15,0.06-0.23s0.11-0.18,0.2-0.3l4.45-5.94
				C597.48,65.15,597.54,65.1,597.59,65.08z M597.36,71.54c0.08,0,0.13-0.03,0.13-0.1v-4.3c0-0.11-0.01-0.17-0.04-0.18
				c-0.03-0.01-0.08,0.03-0.15,0.13l-3.14,4.27c-0.09,0.12-0.06,0.18,0.1,0.18C594.26,71.54,597.36,71.54,597.36,71.54z"/>
			<path class="st7" d="M604.67,69.07c-0.08,0-0.13,0.05-0.13,0.14v4.1c0,0.4,0.08,0.67,0.22,0.82c0.15,0.14,0.38,0.22,0.69,0.22
				h0.9c0.06,0,0.1,0.02,0.13,0.05c0.03,0.03,0.04,0.07,0.04,0.12v0.6c0,0.12-0.07,0.2-0.21,0.24c-0.12,0.02-0.27,0.03-0.45,0.04
				s-0.35,0.02-0.53,0.02s-0.32,0.01-0.46,0.01c-0.61,0-1.06-0.14-1.36-0.43c-0.3-0.28-0.46-0.73-0.46-1.32v-4.44
				c0-0.11-0.05-0.17-0.14-0.17h-1.05c-0.12,0-0.18-0.06-0.18-0.17v-0.74c0-0.1,0.06-0.15,0.17-0.15h1.12
				c0.07,0,0.11-0.04,0.11-0.13l0.17-2.2c0.01-0.13,0.07-0.2,0.17-0.2h0.97c0.12,0,0.18,0.07,0.18,0.22v2.17
				c0,0.08,0.04,0.13,0.13,0.13h1.68c0.11,0,0.17,0.05,0.17,0.15v0.74c0,0.11-0.07,0.17-0.2,0.17L604.67,69.07L604.67,69.07z"/>
		</g>
	</g>
	<g>
		<g>
			<path class="st7" d="M659.6,133.04c-0.36-0.2-0.82-0.29-1.39-0.29c-0.66,0-1.18,0.14-1.55,0.41c-0.37,0.28-0.55,0.66-0.55,1.14
				c0,0.13,0.03,0.28,0.1,0.46c0.06,0.18,0.2,0.35,0.4,0.51c0.2,0.16,0.49,0.31,0.88,0.46l2.1,0.66c0.85,0.26,1.46,0.63,1.83,1.11
				s0.55,1.04,0.55,1.69c0,0.62-0.16,1.15-0.47,1.6c-0.31,0.45-0.76,0.79-1.33,1.03s-1.26,0.36-2.05,0.36
				c-0.59,0-1.13-0.07-1.63-0.2s-0.94-0.34-1.33-0.6s-0.71-0.59-0.97-0.97c-0.04-0.06-0.05-0.13-0.04-0.18
				c0.01-0.06,0.05-0.11,0.13-0.17l0.69-0.48c0.1-0.07,0.18-0.09,0.24-0.08s0.11,0.04,0.15,0.1c0.23,0.3,0.47,0.55,0.71,0.76
				c0.24,0.21,0.51,0.36,0.83,0.46c0.31,0.1,0.69,0.15,1.14,0.15c0.7,0,1.26-0.12,1.69-0.37s0.64-0.64,0.64-1.18
				c0-0.21-0.04-0.41-0.13-0.58c-0.08-0.17-0.23-0.33-0.43-0.48c-0.21-0.14-0.5-0.29-0.9-0.43l-2.11-0.69
				c-0.53-0.18-0.96-0.41-1.29-0.69c-0.33-0.28-0.58-0.6-0.74-0.95c-0.16-0.35-0.24-0.72-0.24-1.09c0-0.6,0.15-1.12,0.46-1.57
				c0.31-0.45,0.74-0.8,1.29-1.04c0.55-0.25,1.19-0.37,1.93-0.37c0.49,0,0.95,0.06,1.37,0.17c0.42,0.12,0.79,0.28,1.14,0.49
				c0.35,0.21,0.64,0.46,0.88,0.75c0.04,0.05,0.06,0.09,0.08,0.14c0.01,0.05-0.01,0.1-0.08,0.15l-0.8,0.62
				c-0.06,0.04-0.1,0.05-0.13,0.04c-0.03-0.01-0.08-0.05-0.15-0.12C660.25,133.47,659.95,133.24,659.6,133.04z"/>
			<path class="st7" d="M667.38,140.75c0.33-0.2,0.66-0.47,0.97-0.81v-5.1c0-0.16,0.09-0.24,0.27-0.24h1.01
				c0.15,0,0.22,0.07,0.22,0.22l-0.03,7c0,0.13-0.06,0.2-0.17,0.2h-1.09c-0.11,0-0.17-0.06-0.17-0.18v-0.78
				c0-0.05-0.01-0.08-0.04-0.09c-0.02-0.01-0.06,0-0.11,0.05c-0.48,0.43-0.91,0.73-1.3,0.9s-0.79,0.25-1.2,0.25
				c-0.42,0-0.8-0.09-1.13-0.27s-0.59-0.43-0.78-0.76s-0.29-0.71-0.29-1.15v-5.14c0-0.17,0.08-0.25,0.25-0.25h1.02
				c0.14,0,0.21,0.07,0.21,0.22v4.86c0,0.4,0.11,0.73,0.34,0.98s0.54,0.38,0.95,0.38C666.69,141.05,667.04,140.95,667.38,140.75z"/>
			<path class="st7" d="M671.79,141.81v-6.99c0-0.14,0.06-0.21,0.18-0.21h1.11c0.11,0,0.17,0.06,0.17,0.18v0.77
				c0,0.05,0.01,0.08,0.04,0.09s0.06,0,0.11-0.05c0.29-0.23,0.56-0.44,0.83-0.61c0.26-0.17,0.53-0.3,0.8-0.39
				c0.27-0.09,0.56-0.13,0.88-0.13c0.71,0,1.26,0.2,1.65,0.59s0.59,0.91,0.59,1.55v5.17c0,0.17-0.08,0.25-0.24,0.25h-1.04
				c-0.07,0-0.13-0.02-0.16-0.05c-0.03-0.03-0.05-0.09-0.05-0.18v-4.9c0-0.41-0.11-0.73-0.32-0.97s-0.55-0.35-0.99-0.35
				c-0.25,0-0.49,0.04-0.7,0.12s-0.43,0.2-0.64,0.35c-0.21,0.15-0.45,0.35-0.71,0.58v5.15c0,0.16-0.09,0.24-0.27,0.24h-0.99
				C671.87,142.03,671.79,141.96,671.79,141.81z"/>
			<path class="st7" d="M684.09,134.66c0.03,0.03,0.05,0.08,0.05,0.13v0.73c0,0.1-0.06,0.15-0.18,0.15h-1.46
				c-0.08,0-0.13,0.04-0.13,0.13v6.01c0,0.15-0.06,0.22-0.18,0.22h-1.13c-0.11,0-0.17-0.07-0.17-0.2v-6.05
				c0-0.07-0.03-0.11-0.1-0.11h-1.26c-0.11,0-0.17-0.05-0.17-0.15v-0.73c0-0.06,0.01-0.1,0.04-0.13c0.03-0.03,0.07-0.05,0.14-0.05
				h1.2c0.09,0,0.14-0.06,0.14-0.17v-0.97c0-0.59,0.15-1.04,0.46-1.36s0.77-0.48,1.39-0.48h1.25c0.14,0,0.21,0.07,0.21,0.21
				l0.01,0.66c0,0.05-0.01,0.09-0.04,0.12s-0.08,0.05-0.14,0.05h-0.9c-0.27,0-0.47,0.09-0.59,0.26c-0.13,0.17-0.19,0.4-0.19,0.69
				v0.85c0,0.08,0.05,0.13,0.14,0.13h1.46C684.01,134.61,684.06,134.63,684.09,134.66z M686.93,141.76c0,0.1-0.02,0.17-0.06,0.21
				c-0.04,0.04-0.12,0.06-0.23,0.06h-0.95c-0.17,0-0.25-0.07-0.25-0.22l0.03-9.95c0-0.14,0.06-0.21,0.18-0.21h1.11
				c0.12,0,0.18,0.07,0.18,0.21v9.9H686.93z"/>
			<path class="st7" d="M690.22,141.69c-0.54-0.32-0.96-0.77-1.26-1.34s-0.45-1.23-0.45-1.98c0-0.77,0.15-1.45,0.46-2.04
				c0.31-0.58,0.74-1.04,1.28-1.36s1.17-0.49,1.87-0.49c0.73,0,1.36,0.17,1.9,0.5c0.54,0.33,0.95,0.79,1.25,1.37
				s0.45,1.25,0.45,2.01c0,0.75-0.15,1.41-0.46,1.98c-0.3,0.57-0.73,1.02-1.27,1.35c-0.54,0.33-1.17,0.49-1.89,0.49
				S690.76,142.01,690.22,141.69z M693.25,140.78c0.31-0.22,0.54-0.54,0.71-0.96c0.16-0.42,0.25-0.92,0.25-1.5s-0.08-1.09-0.25-1.51
				c-0.16-0.42-0.4-0.74-0.71-0.97s-0.69-0.34-1.13-0.34s-0.81,0.11-1.13,0.34c-0.31,0.23-0.55,0.55-0.72,0.97s-0.25,0.92-0.25,1.51
				s0.08,1.09,0.25,1.5c0.17,0.42,0.41,0.73,0.72,0.96c0.31,0.22,0.69,0.34,1.14,0.34C692.57,141.12,692.95,141.01,693.25,140.78z"
				/>
			<path class="st7" d="M707.14,134.68c0.03,0.05,0.03,0.1,0,0.17l-2.18,6.99c-0.02,0.07-0.05,0.13-0.09,0.15s-0.1,0.04-0.19,0.04
				h-0.81c-0.17,0-0.28-0.07-0.32-0.21l-1.51-4.8c-0.04-0.08-0.07-0.13-0.1-0.13c-0.03,0-0.06,0.04-0.08,0.13l-1.47,4.82
				c-0.02,0.07-0.05,0.13-0.09,0.15s-0.1,0.04-0.18,0.04h-0.87c-0.17,0-0.27-0.07-0.31-0.21l-2.23-6.96
				c-0.02-0.07-0.01-0.14,0.01-0.18c0.03-0.05,0.08-0.07,0.15-0.07h1.09c0.06,0,0.11,0.02,0.15,0.05c0.05,0.03,0.08,0.08,0.1,0.13
				l1.54,4.98c0.02,0.08,0.05,0.13,0.09,0.13s0.08-0.05,0.11-0.14l1.51-4.98c0.02-0.06,0.05-0.1,0.08-0.13s0.09-0.04,0.15-0.04h0.81
				c0.06,0,0.11,0.02,0.15,0.05s0.07,0.08,0.08,0.13l1.57,4.98c0.03,0.08,0.06,0.13,0.1,0.13s0.07-0.05,0.1-0.14l1.48-4.98
				c0.03-0.05,0.06-0.09,0.1-0.12s0.1-0.05,0.16-0.05h0.71C707.06,134.61,707.11,134.63,707.14,134.68z"/>
			<path class="st7" d="M709.96,139.98c0.2,0.34,0.47,0.61,0.81,0.81s0.72,0.3,1.14,0.3c0.43,0,0.81-0.09,1.15-0.27
				c0.34-0.18,0.64-0.45,0.92-0.83c0.03-0.04,0.06-0.06,0.08-0.06c0.03,0,0.07,0.01,0.13,0.03l0.71,0.34
				c0.1,0.05,0.11,0.12,0.03,0.22c-0.26,0.38-0.55,0.7-0.86,0.94s-0.66,0.42-1.04,0.53s-0.81,0.17-1.27,0.17
				c-0.71,0-1.33-0.16-1.88-0.48s-0.97-0.76-1.28-1.33s-0.47-1.22-0.47-1.96c0-0.81,0.16-1.51,0.48-2.09s0.75-1.04,1.29-1.36
				c0.55-0.32,1.15-0.48,1.83-0.48c0.69,0,1.3,0.15,1.81,0.46s0.92,0.74,1.21,1.31s0.43,1.26,0.43,2.07c0,0.08-0.01,0.16-0.03,0.22
				s-0.08,0.09-0.18,0.09h-5.18c-0.05,0-0.08,0.02-0.1,0.06c-0.02,0.04-0.04,0.1-0.04,0.16
				C709.66,139.26,709.76,139.64,709.96,139.98z M713.48,137.73c0.1,0,0.17-0.01,0.2-0.04s0.04-0.08,0.04-0.15
				c0-0.35-0.08-0.69-0.23-1.01c-0.15-0.32-0.37-0.57-0.66-0.77s-0.64-0.29-1.06-0.29c-0.44,0-0.81,0.1-1.13,0.31
				c-0.31,0.21-0.55,0.49-0.71,0.83s-0.25,0.71-0.25,1.11L713.48,137.73z"/>
			<path class="st7" d="M716.73,141.97c-0.04-0.04-0.06-0.09-0.06-0.17v-6.99c0-0.14,0.06-0.21,0.18-0.21h1.08
				c0.11,0,0.17,0.06,0.17,0.18v0.88c0,0.06,0.02,0.09,0.05,0.1c0.03,0.01,0.07-0.01,0.1-0.06c0.23-0.28,0.47-0.51,0.71-0.69
				c0.24-0.18,0.48-0.32,0.72-0.41s0.49-0.14,0.73-0.14c0.33,0,0.49,0.07,0.49,0.2v1.09c0,0.11-0.05,0.16-0.15,0.14
				c-0.11-0.03-0.23-0.05-0.36-0.06s-0.25-0.01-0.39-0.01c-0.2,0-0.4,0.04-0.62,0.13c-0.21,0.08-0.41,0.2-0.6,0.34
				c-0.18,0.14-0.33,0.31-0.45,0.48c-0.12,0.18-0.18,0.36-0.18,0.55v4.47c0,0.16-0.09,0.24-0.27,0.24h-0.99
				C716.83,142.03,716.77,142.01,716.73,141.97z"/>
		</g>
	</g>
	<g>
		<g>
			<path class="st7" d="M659.98,150.62c0.49,0.24,0.92,0.59,1.28,1.04c0.36,0.46,0.65,1.02,0.85,1.69c0.2,0.67,0.3,1.43,0.3,2.27
				c0,1.13-0.17,2.09-0.52,2.88c-0.35,0.79-0.83,1.39-1.44,1.8s-1.3,0.62-2.07,0.62c-0.78,0-1.47-0.21-2.07-0.62
				c-0.61-0.41-1.08-1.01-1.44-1.79c-0.35-0.78-0.52-1.74-0.52-2.87c0-0.86,0.1-1.62,0.31-2.28s0.49-1.23,0.85-1.69
				s0.79-0.81,1.28-1.05c0.49-0.24,1.02-0.36,1.6-0.36C658.96,150.26,659.49,150.38,659.98,150.62z M659.63,159.25
				c0.34-0.27,0.6-0.71,0.78-1.3c0.18-0.59,0.27-1.37,0.27-2.33c0-0.98-0.09-1.77-0.28-2.38s-0.45-1.05-0.8-1.33
				s-0.76-0.42-1.23-0.42s-0.87,0.14-1.22,0.42c-0.34,0.28-0.61,0.73-0.8,1.34s-0.29,1.4-0.29,2.37c0,0.96,0.1,1.74,0.29,2.33
				s0.46,1.03,0.8,1.3c0.35,0.28,0.76,0.41,1.23,0.41C658.88,159.67,659.29,159.53,659.63,159.25z"/>
			<path class="st7" d="M665.63,160.53c0,0.17-0.1,0.25-0.29,0.25h-1.19c-0.16,0-0.24-0.07-0.24-0.22v-1.39
				c0-0.13,0.06-0.2,0.17-0.2h1.4c0.1,0,0.15,0.06,0.15,0.18L665.63,160.53L665.63,160.53z"/>
			<path class="st7" d="M673.98,150.4c0.1,0,0.17,0.02,0.22,0.06s0.06,0.09,0.06,0.15l-0.03,0.59c0,0.07-0.03,0.17-0.08,0.28
				s-0.11,0.21-0.17,0.31c-0.35,0.54-0.7,1.13-1.04,1.76s-0.65,1.27-0.93,1.93c-0.29,0.65-0.54,1.29-0.76,1.91
				c-0.22,0.62-0.41,1.2-0.55,1.73s-0.24,0.99-0.29,1.37c-0.02,0.21-0.1,0.31-0.24,0.31h-1.46c-0.18,0-0.24-0.09-0.2-0.28
				c0.14-0.52,0.32-1.09,0.53-1.72c0.21-0.62,0.47-1.29,0.78-2.02c0.31-0.72,0.68-1.49,1.11-2.29s0.91-1.64,1.46-2.51
				c0.04-0.06,0.05-0.1,0.04-0.14s-0.06-0.06-0.14-0.06h-5.21c-0.14,0-0.21-0.07-0.2-0.21l0.1-1.02c0.02-0.1,0.11-0.15,0.27-0.15
				L673.98,150.4L673.98,150.4z"/>
			<path class="st7" d="M680.99,159.65v0.95c0,0.05-0.02,0.09-0.05,0.13c-0.03,0.04-0.09,0.06-0.16,0.06h-5.1
				c-0.13,0-0.2-0.06-0.2-0.17v-0.97c0-0.1,0.06-0.15,0.18-0.15h1.67c0.08,0,0.13-0.03,0.13-0.08v-7.13c0-0.11-0.05-0.15-0.15-0.13
				l-1.61,0.56c-0.15,0.04-0.22-0.03-0.22-0.2v-0.67c0-0.08,0.01-0.14,0.04-0.16c0.02-0.02,0.06-0.05,0.12-0.09l2.17-1.08
				c0.1-0.05,0.18-0.08,0.25-0.1s0.14-0.03,0.23-0.03h0.7c0.12,0,0.18,0.07,0.18,0.2v8.78c0,0.08,0.03,0.13,0.1,0.13h1.54
				C680.92,159.5,680.99,159.55,680.99,159.65z"/>
			<path class="st7" d="M684.84,154.43c-0.08,0-0.13,0.05-0.13,0.14v4.1c0,0.4,0.08,0.67,0.22,0.82c0.15,0.14,0.38,0.22,0.69,0.22
				h0.9c0.06,0,0.1,0.02,0.13,0.05s0.04,0.07,0.04,0.12v0.6c0,0.12-0.07,0.2-0.21,0.24c-0.12,0.02-0.27,0.03-0.45,0.04
				s-0.35,0.02-0.53,0.02s-0.32,0.01-0.46,0.01c-0.61,0-1.06-0.14-1.36-0.43c-0.3-0.28-0.46-0.73-0.46-1.32v-4.44
				c0-0.11-0.05-0.17-0.14-0.17h-1.05c-0.12,0-0.18-0.06-0.18-0.17v-0.74c0-0.1,0.06-0.15,0.17-0.15h1.12
				c0.07,0,0.11-0.04,0.11-0.13l0.17-2.2c0.01-0.13,0.07-0.2,0.17-0.2h0.97c0.12,0,0.18,0.07,0.18,0.22v2.17
				c0,0.08,0.04,0.13,0.13,0.13h1.68c0.11,0,0.17,0.05,0.17,0.15v0.74c0,0.11-0.07,0.17-0.2,0.17L684.84,154.43L684.84,154.43z"/>
		</g>
	</g>
	<g>
		<g>
			<path class="st7" d="M649.54,219.04c-0.36-0.2-0.82-0.29-1.38-0.29c-0.66,0-1.18,0.14-1.55,0.41c-0.37,0.28-0.55,0.66-0.55,1.14
				c0,0.13,0.03,0.28,0.1,0.46c0.06,0.18,0.2,0.35,0.4,0.51c0.2,0.16,0.49,0.31,0.88,0.46l2.1,0.66c0.85,0.26,1.46,0.63,1.83,1.11
				s0.55,1.04,0.55,1.69c0,0.62-0.16,1.15-0.47,1.6c-0.31,0.45-0.76,0.79-1.33,1.03s-1.26,0.36-2.05,0.36
				c-0.59,0-1.13-0.07-1.63-0.2c-0.5-0.14-0.94-0.34-1.33-0.6c-0.39-0.27-0.71-0.59-0.97-0.97c-0.04-0.06-0.05-0.13-0.04-0.18
				c0.01-0.06,0.05-0.11,0.12-0.17l0.69-0.48c0.1-0.07,0.18-0.09,0.24-0.08s0.11,0.04,0.15,0.1c0.23,0.3,0.47,0.55,0.71,0.76
				c0.24,0.21,0.51,0.36,0.83,0.46c0.31,0.1,0.69,0.15,1.14,0.15c0.7,0,1.26-0.12,1.69-0.37c0.42-0.25,0.64-0.64,0.64-1.18
				c0-0.21-0.04-0.41-0.12-0.58s-0.23-0.33-0.44-0.48c-0.21-0.14-0.5-0.29-0.89-0.43l-2.12-0.69c-0.53-0.18-0.96-0.41-1.29-0.69
				c-0.33-0.28-0.58-0.6-0.73-0.95c-0.16-0.35-0.24-0.72-0.24-1.09c0-0.6,0.15-1.12,0.46-1.57c0.31-0.45,0.74-0.8,1.29-1.04
				c0.55-0.25,1.2-0.37,1.93-0.37c0.49,0,0.95,0.06,1.37,0.17s0.79,0.28,1.14,0.49c0.35,0.21,0.64,0.46,0.88,0.75
				c0.04,0.05,0.06,0.09,0.08,0.14c0.01,0.05-0.01,0.1-0.08,0.15l-0.8,0.62c-0.05,0.04-0.1,0.05-0.13,0.04s-0.08-0.05-0.15-0.12
				C650.19,219.47,649.89,219.24,649.54,219.04z"/>
			<path class="st7" d="M654.88,227.69c-0.54-0.32-0.96-0.77-1.26-1.34s-0.45-1.23-0.45-1.98c0-0.77,0.15-1.45,0.46-2.04
				c0.31-0.58,0.74-1.04,1.28-1.36c0.55-0.33,1.17-0.49,1.87-0.49c0.73,0,1.36,0.17,1.9,0.5c0.54,0.33,0.96,0.79,1.25,1.37
				s0.45,1.25,0.45,2.01c0,0.75-0.15,1.41-0.46,1.98c-0.3,0.57-0.72,1.02-1.27,1.35c-0.54,0.33-1.17,0.49-1.89,0.49
				S655.42,228.01,654.88,227.69z M657.92,226.78c0.31-0.22,0.54-0.54,0.71-0.96c0.16-0.42,0.24-0.92,0.24-1.5s-0.08-1.09-0.24-1.51
				s-0.4-0.74-0.71-0.97s-0.69-0.34-1.13-0.34s-0.81,0.11-1.13,0.34c-0.31,0.23-0.55,0.55-0.72,0.97s-0.25,0.92-0.25,1.51
				s0.08,1.09,0.25,1.5c0.17,0.42,0.41,0.73,0.72,0.96s0.69,0.34,1.14,0.34C657.24,227.12,657.61,227.01,657.92,226.78z"/>
			<path class="st7" d="M661.82,230.31c-0.14-0.02-0.22-0.08-0.22-0.18v-0.71c0-0.06,0.03-0.1,0.08-0.14s0.16-0.06,0.32-0.06h0.91
				c0.2,0,0.38-0.06,0.54-0.17c0.16-0.12,0.3-0.26,0.4-0.44c0.1-0.18,0.17-0.36,0.2-0.55s0.02-0.36-0.04-0.51l-2.67-6.66
				c-0.03-0.07-0.03-0.13,0-0.18c0.03-0.06,0.09-0.08,0.18-0.08h1.15c0.05,0,0.11,0.02,0.15,0.05s0.08,0.08,0.08,0.13l1.93,5.04
				c0.03,0.08,0.06,0.13,0.11,0.13s0.09-0.06,0.12-0.17l1.9-5.01c0.02-0.05,0.05-0.09,0.08-0.12s0.08-0.05,0.14-0.05h0.83
				c0.07,0,0.13,0.03,0.16,0.08c0.03,0.05,0.03,0.1-0.01,0.16l-3.01,7.63c-0.15,0.38-0.31,0.69-0.49,0.94
				c-0.18,0.24-0.37,0.43-0.59,0.57c-0.21,0.14-0.46,0.23-0.72,0.28c-0.27,0.05-0.57,0.08-0.92,0.08
				C662.18,230.34,661.96,230.33,661.82,230.31z"/>
			<path class="st7" d="M669.78,228.03c-0.09,0-0.16-0.02-0.2-0.06c-0.04-0.04-0.06-0.1-0.06-0.2v-9.93c0-0.14,0.06-0.21,0.2-0.21
				h1.12c0.11,0,0.17,0.07,0.17,0.21v3.39c0,0.09,0.02,0.15,0.06,0.15c0.04,0.01,0.1-0.01,0.16-0.07c0.1-0.1,0.25-0.22,0.44-0.35
				s0.43-0.25,0.71-0.35c0.29-0.1,0.61-0.15,0.99-0.15c0.67,0,1.23,0.17,1.67,0.5s0.77,0.78,0.99,1.35s0.33,1.22,0.33,1.96
				c0,1.19-0.28,2.14-0.83,2.84s-1.34,1.05-2.36,1.05c-0.4,0-0.75-0.06-1.05-0.18s-0.54-0.27-0.74-0.45s-0.35-0.34-0.46-0.48
				c-0.04-0.05-0.07-0.07-0.11-0.06c-0.03,0-0.05,0.04-0.05,0.1l-0.11,0.69c-0.03,0.16-0.12,0.24-0.28,0.24L669.78,228.03
				L669.78,228.03z M671.01,225.51c0,0.32,0.09,0.6,0.26,0.85s0.4,0.45,0.67,0.6c0.28,0.14,0.57,0.22,0.89,0.22
				c0.38,0,0.72-0.1,1.03-0.29c0.3-0.2,0.54-0.51,0.71-0.93c0.17-0.42,0.26-0.97,0.26-1.65c0-0.92-0.16-1.62-0.49-2.1
				c-0.33-0.48-0.81-0.71-1.44-0.71c-0.38,0-0.74,0.09-1.06,0.27c-0.33,0.18-0.6,0.4-0.83,0.67L671.01,225.51L671.01,225.51z"/>
			<path class="st7" d="M679.39,225.98c0.2,0.34,0.47,0.61,0.81,0.81s0.72,0.3,1.14,0.3c0.43,0,0.81-0.09,1.15-0.27
				c0.34-0.18,0.64-0.45,0.93-0.83c0.03-0.04,0.05-0.06,0.08-0.06s0.07,0.01,0.12,0.03l0.71,0.34c0.1,0.05,0.11,0.12,0.03,0.22
				c-0.26,0.38-0.55,0.7-0.86,0.94s-0.66,0.42-1.04,0.53s-0.81,0.17-1.27,0.17c-0.71,0-1.34-0.16-1.88-0.48s-0.97-0.76-1.28-1.33
				s-0.47-1.22-0.47-1.96c0-0.81,0.16-1.51,0.48-2.09s0.75-1.04,1.29-1.36c0.55-0.32,1.15-0.48,1.83-0.48c0.69,0,1.3,0.15,1.81,0.46
				s0.92,0.74,1.21,1.31s0.43,1.26,0.43,2.07c0,0.08-0.01,0.16-0.03,0.22s-0.08,0.09-0.18,0.09h-5.18c-0.05,0-0.08,0.02-0.1,0.06
				c-0.02,0.04-0.04,0.1-0.04,0.16C679.09,225.26,679.19,225.64,679.39,225.98z M682.91,223.73c0.1,0,0.17-0.01,0.2-0.04
				s0.04-0.08,0.04-0.15c0-0.35-0.08-0.69-0.23-1.01s-0.37-0.57-0.66-0.77s-0.64-0.29-1.06-0.29c-0.44,0-0.81,0.1-1.13,0.31
				s-0.55,0.49-0.71,0.83c-0.16,0.35-0.24,0.71-0.24,1.11L682.91,223.73z"/>
			<path class="st7" d="M689.21,227.92c-0.39,0.17-0.84,0.25-1.33,0.25c-0.72,0-1.28-0.19-1.69-0.56s-0.62-0.86-0.62-1.47
				c0-0.51,0.15-0.95,0.44-1.32c0.29-0.36,0.72-0.65,1.29-0.87c0.56-0.21,1.25-0.34,2.07-0.38l0.91-0.07
				c0.05-0.01,0.11-0.03,0.15-0.06c0.05-0.03,0.07-0.08,0.07-0.15v-0.35c0-0.46-0.14-0.82-0.42-1.08c-0.28-0.27-0.66-0.4-1.15-0.4
				c-0.36,0-0.7,0.08-1.01,0.25s-0.58,0.43-0.83,0.78c-0.03,0.05-0.05,0.08-0.08,0.1s-0.08,0.02-0.15,0l-0.95-0.28
				c-0.04-0.02-0.06-0.04-0.08-0.08s0-0.1,0.04-0.19c0.27-0.5,0.67-0.89,1.2-1.17s1.17-0.41,1.94-0.41c0.67,0,1.22,0.1,1.65,0.29
				s0.75,0.47,0.96,0.83s0.31,0.78,0.31,1.27v4.94c0,0.09-0.02,0.16-0.05,0.19c-0.03,0.03-0.09,0.05-0.16,0.05h-0.95
				c-0.06,0-0.12-0.03-0.15-0.08c-0.04-0.05-0.06-0.12-0.07-0.2l-0.01-0.53c-0.03-0.15-0.11-0.16-0.24-0.03
				C689.96,227.51,689.6,227.75,689.21,227.92z M690.3,224.33l-0.76,0.06c-0.37,0.02-0.71,0.07-1.02,0.15
				c-0.31,0.08-0.57,0.18-0.79,0.31s-0.39,0.29-0.52,0.47c-0.12,0.18-0.19,0.39-0.19,0.64c0,0.36,0.13,0.65,0.38,0.86
				c0.26,0.21,0.6,0.31,1.04,0.31c0.28,0,0.54-0.05,0.79-0.15c0.25-0.1,0.46-0.22,0.65-0.37c0.19-0.16,0.33-0.32,0.44-0.49
				s0.16-0.33,0.16-0.49v-1.09C690.5,224.39,690.43,224.32,690.3,224.33z"/>
			<path class="st7" d="M693.83,227.81v-6.99c0-0.14,0.06-0.21,0.18-0.21h1.11c0.11,0,0.17,0.06,0.17,0.18v0.77
				c0,0.05,0.01,0.08,0.04,0.09s0.06,0,0.11-0.05c0.29-0.23,0.56-0.44,0.83-0.61c0.26-0.17,0.53-0.3,0.8-0.39
				c0.27-0.09,0.56-0.13,0.88-0.13c0.71,0,1.26,0.2,1.65,0.59s0.59,0.91,0.59,1.55v5.17c0,0.17-0.08,0.25-0.24,0.25h-1.04
				c-0.07,0-0.13-0.02-0.16-0.05s-0.05-0.09-0.05-0.18v-4.9c0-0.41-0.11-0.73-0.32-0.97s-0.55-0.35-0.99-0.35
				c-0.25,0-0.49,0.04-0.7,0.12s-0.43,0.2-0.64,0.35c-0.21,0.15-0.45,0.35-0.71,0.58v5.15c0,0.16-0.09,0.24-0.27,0.24h-0.99
				C693.91,228.03,693.83,227.96,693.83,227.81z"/>
		</g>
	</g>
	<g>
		<g>
			<path class="st7" d="M649.92,236.61c0.49,0.24,0.92,0.59,1.28,1.04c0.36,0.46,0.65,1.02,0.85,1.69c0.2,0.67,0.3,1.43,0.3,2.27
				c0,1.13-0.17,2.09-0.52,2.88c-0.35,0.79-0.83,1.39-1.44,1.8s-1.3,0.62-2.07,0.62c-0.78,0-1.47-0.21-2.07-0.62
				c-0.61-0.41-1.08-1.01-1.44-1.79c-0.35-0.78-0.52-1.74-0.52-2.87c0-0.86,0.1-1.62,0.31-2.28s0.49-1.23,0.85-1.69
				s0.79-0.81,1.28-1.05c0.49-0.24,1.02-0.36,1.6-0.36C648.9,236.26,649.43,236.38,649.92,236.61z M649.57,245.25
				c0.34-0.27,0.6-0.71,0.78-1.3c0.18-0.59,0.27-1.37,0.27-2.33c0-0.98-0.09-1.77-0.28-2.38s-0.45-1.05-0.8-1.33
				s-0.76-0.42-1.23-0.42s-0.87,0.14-1.22,0.42c-0.34,0.28-0.61,0.73-0.8,1.34s-0.29,1.4-0.29,2.37c0,0.96,0.1,1.74,0.29,2.33
				s0.46,1.03,0.8,1.3c0.35,0.28,0.76,0.41,1.23,0.41C648.82,245.67,649.23,245.53,649.57,245.25z"/>
			<path class="st7" d="M655.57,246.53c0,0.17-0.1,0.25-0.29,0.25h-1.19c-0.16,0-0.24-0.07-0.24-0.22v-1.39
				c0-0.13,0.06-0.2,0.17-0.2h1.4c0.1,0,0.15,0.06,0.15,0.18L655.57,246.53L655.57,246.53z"/>
			<path class="st7" d="M661.76,236.43c0.05-0.02,0.13-0.04,0.23-0.04h1.2c0.12,0,0.18,0.07,0.18,0.2v6.16
				c0,0.09,0.04,0.14,0.13,0.14h1.26c0.14,0,0.21,0.06,0.21,0.17v0.84c0,0.14-0.07,0.21-0.21,0.21h-1.25
				c-0.09,0-0.14,0.05-0.14,0.14v2.3c0,0.16-0.09,0.24-0.27,0.24h-1.22c-0.15,0-0.22-0.07-0.22-0.22v-2.35c0-0.06-0.05-0.1-0.14-0.1
				h-4.42c-0.16,0-0.24-0.07-0.24-0.21v-0.85c0-0.07,0.02-0.15,0.06-0.23s0.11-0.18,0.2-0.3l4.45-5.94
				C661.65,236.5,661.71,236.46,661.76,236.43z M661.53,242.89c0.08,0,0.13-0.03,0.13-0.1v-4.3c0-0.11-0.01-0.17-0.04-0.18
				c-0.03-0.01-0.08,0.03-0.15,0.13l-3.14,4.27c-0.09,0.12-0.06,0.18,0.1,0.18H661.53z"/>
			<path class="st7" d="M673.22,236.4c0.12,0,0.2,0.02,0.22,0.05s0.04,0.1,0.03,0.19l-0.06,0.95c-0.01,0.08-0.03,0.14-0.05,0.16
				c-0.02,0.02-0.08,0.04-0.17,0.04h-4.66c-0.12,0-0.19,0.06-0.2,0.17l-0.21,2.65c-0.01,0.07,0,0.11,0.04,0.15s0.08,0.04,0.13,0.02
				c0.35-0.16,0.7-0.3,1.03-0.41s0.73-0.17,1.2-0.17c0.64,0,1.23,0.11,1.77,0.34c0.54,0.23,0.97,0.58,1.29,1.06
				c0.33,0.48,0.49,1.08,0.49,1.81c0,0.75-0.17,1.38-0.52,1.91c-0.35,0.53-0.82,0.93-1.44,1.21c-0.61,0.28-1.31,0.42-2.11,0.42
				c-0.77,0-1.48-0.13-2.14-0.4c-0.66-0.27-1.2-0.64-1.62-1.13c-0.05-0.06-0.07-0.13-0.08-0.18c0-0.06,0.03-0.11,0.11-0.17
				l0.77-0.57c0.09-0.07,0.19-0.06,0.28,0.03c0.24,0.23,0.48,0.44,0.71,0.62c0.23,0.18,0.49,0.32,0.77,0.42
				c0.28,0.1,0.62,0.15,1.01,0.15c0.55,0,1.02-0.1,1.41-0.29c0.39-0.19,0.68-0.46,0.88-0.81c0.2-0.35,0.3-0.73,0.3-1.16
				c0-0.45-0.1-0.82-0.29-1.12s-0.46-0.53-0.79-0.68s-0.71-0.23-1.13-0.23c-0.44,0-0.84,0.08-1.19,0.24s-0.7,0.33-1.02,0.5
				c-0.08,0.04-0.14,0.05-0.16,0.05c-0.02,0-0.07-0.03-0.13-0.06l-0.87-0.49c-0.08-0.05-0.13-0.09-0.13-0.13
				c0-0.04,0-0.11,0.01-0.22l0.38-4.66c0.01-0.09,0.04-0.16,0.08-0.19s0.14-0.05,0.3-0.05h5.76L673.22,236.4L673.22,236.4z"/>
			<path class="st7" d="M678.09,240.43c-0.08,0-0.13,0.05-0.13,0.14v4.1c0,0.4,0.08,0.67,0.22,0.82c0.15,0.14,0.38,0.22,0.69,0.22
				h0.9c0.06,0,0.1,0.02,0.13,0.05s0.04,0.07,0.04,0.12v0.6c0,0.12-0.07,0.2-0.21,0.24c-0.12,0.02-0.27,0.03-0.45,0.04
				s-0.35,0.02-0.53,0.02s-0.32,0.01-0.46,0.01c-0.61,0-1.06-0.14-1.36-0.43c-0.3-0.28-0.46-0.73-0.46-1.32v-4.44
				c0-0.11-0.05-0.17-0.14-0.17h-1.05c-0.12,0-0.18-0.06-0.18-0.17v-0.74c0-0.1,0.06-0.15,0.17-0.15h1.12
				c0.07,0,0.11-0.04,0.11-0.13l0.17-2.2c0.01-0.13,0.07-0.2,0.17-0.2h0.97c0.12,0,0.18,0.07,0.18,0.22v2.17
				c0,0.08,0.04,0.13,0.13,0.13h1.68c0.11,0,0.17,0.05,0.17,0.15v0.74c0,0.11-0.07,0.17-0.2,0.17L678.09,240.43L678.09,240.43z"/>
		</g>
	</g>
	<g>
		<g>
			<path class="st7" d="M600.04,285.35c0.44,0.15,0.84,0.37,1.2,0.64c0.35,0.27,0.65,0.58,0.88,0.93s0.38,0.73,0.44,1.14
				c0.02,0.1,0.02,0.17,0,0.2s-0.06,0.05-0.13,0.06l-1.3,0.08c-0.06,0.01-0.09,0-0.11-0.03c-0.02-0.03-0.04-0.07-0.06-0.13
				c-0.12-0.56-0.38-1.02-0.77-1.37s-0.89-0.53-1.5-0.53c-0.89,0-1.57,0.34-2.05,1.01s-0.72,1.7-0.72,3.08
				c0,1.36,0.24,2.38,0.71,3.05c0.47,0.67,1.18,1.01,2.12,1.01c0.62,0,1.15-0.15,1.58-0.46s0.77-0.8,1.04-1.49
				c0.03-0.06,0.1-0.09,0.21-0.07l0.99,0.24c0.03,0.01,0.06,0.03,0.08,0.06c0.03,0.03,0.03,0.09,0.01,0.18
				c-0.07,0.24-0.17,0.49-0.32,0.76c-0.15,0.26-0.34,0.52-0.56,0.76c-0.22,0.25-0.49,0.47-0.8,0.67s-0.66,0.35-1.04,0.47
				c-0.39,0.12-0.81,0.18-1.27,0.18c-0.94,0-1.75-0.22-2.43-0.66s-1.2-1.06-1.56-1.86s-0.55-1.75-0.55-2.84
				c0-1.1,0.18-2.05,0.55-2.84c0.36-0.79,0.88-1.4,1.55-1.83c0.67-0.42,1.47-0.64,2.39-0.64
				C599.12,285.11,599.59,285.19,600.04,285.35z"/>
			<path class="st7" d="M605.59,295.3c-0.54-0.32-0.96-0.77-1.26-1.34s-0.45-1.23-0.45-1.98c0-0.77,0.15-1.45,0.46-2.04
				c0.31-0.58,0.74-1.04,1.28-1.36s1.17-0.49,1.87-0.49c0.73,0,1.36,0.17,1.9,0.5c0.54,0.33,0.95,0.79,1.25,1.37
				s0.45,1.25,0.45,2.01c0,0.75-0.15,1.41-0.46,1.98c-0.3,0.57-0.73,1.02-1.27,1.35c-0.54,0.33-1.17,0.49-1.89,0.49
				S606.13,295.62,605.59,295.3z M608.62,294.4c0.31-0.22,0.54-0.54,0.71-0.96c0.16-0.42,0.25-0.92,0.25-1.5s-0.08-1.09-0.25-1.51
				c-0.16-0.42-0.4-0.74-0.71-0.97s-0.69-0.34-1.13-0.34s-0.81,0.11-1.13,0.34c-0.31,0.23-0.55,0.55-0.72,0.97s-0.25,0.92-0.25,1.51
				s0.08,1.09,0.25,1.5c0.17,0.42,0.41,0.73,0.72,0.96c0.31,0.22,0.69,0.34,1.14,0.34C607.94,294.73,608.32,294.62,608.62,294.4z"/>
			<path class="st7" d="M614.98,289.29c-0.08,0-0.13,0.05-0.13,0.14v4.1c0,0.4,0.08,0.67,0.22,0.82c0.15,0.14,0.38,0.22,0.69,0.22
				h0.9c0.06,0,0.1,0.02,0.13,0.05s0.04,0.07,0.04,0.12v0.6c0,0.12-0.07,0.2-0.21,0.24c-0.12,0.02-0.27,0.03-0.45,0.04
				s-0.35,0.02-0.53,0.02s-0.32,0.01-0.46,0.01c-0.61,0-1.06-0.14-1.36-0.43c-0.3-0.28-0.46-0.73-0.46-1.32v-4.44
				c0-0.11-0.05-0.17-0.14-0.17h-1.05c-0.12,0-0.18-0.06-0.18-0.17v-0.74c0-0.1,0.06-0.15,0.17-0.15h1.12
				c0.07,0,0.11-0.04,0.11-0.13l0.17-2.2c0.01-0.13,0.07-0.2,0.17-0.2h0.97c0.12,0,0.18,0.07,0.18,0.22v2.17
				c0,0.08,0.04,0.13,0.13,0.13h1.68c0.11,0,0.17,0.05,0.17,0.15v0.74c0,0.11-0.07,0.17-0.2,0.17h-1.68L614.98,289.29L614.98,289.29
				z"/>
			<path class="st7" d="M620.59,289.29c-0.08,0-0.13,0.05-0.13,0.14v4.1c0,0.4,0.08,0.67,0.22,0.82c0.15,0.14,0.38,0.22,0.69,0.22
				h0.9c0.06,0,0.1,0.02,0.13,0.05s0.04,0.07,0.04,0.12v0.6c0,0.12-0.07,0.2-0.21,0.24c-0.12,0.02-0.27,0.03-0.45,0.04
				s-0.35,0.02-0.53,0.02s-0.32,0.01-0.46,0.01c-0.61,0-1.06-0.14-1.36-0.43c-0.3-0.28-0.46-0.73-0.46-1.32v-4.44
				c0-0.11-0.05-0.17-0.14-0.17h-1.05c-0.12,0-0.18-0.06-0.18-0.17v-0.74c0-0.1,0.06-0.15,0.17-0.15h1.12
				c0.07,0,0.11-0.04,0.11-0.13l0.17-2.2c0.01-0.13,0.07-0.2,0.17-0.2h0.97c0.12,0,0.18,0.07,0.18,0.22v2.17
				c0,0.08,0.04,0.13,0.13,0.13h1.68c0.11,0,0.17,0.05,0.17,0.15v0.74c0,0.11-0.07,0.17-0.2,0.17h-1.68L620.59,289.29L620.59,289.29
				z"/>
			<path class="st7" d="M625.2,295.3c-0.54-0.32-0.96-0.77-1.26-1.34s-0.45-1.23-0.45-1.98c0-0.77,0.15-1.45,0.46-2.04
				c0.31-0.58,0.74-1.04,1.28-1.36s1.17-0.49,1.87-0.49c0.73,0,1.36,0.17,1.9,0.5c0.54,0.33,0.95,0.79,1.25,1.37
				s0.45,1.25,0.45,2.01c0,0.75-0.15,1.41-0.46,1.98c-0.3,0.57-0.73,1.02-1.27,1.35c-0.54,0.33-1.17,0.49-1.89,0.49
				S625.74,295.62,625.2,295.3z M628.24,294.4c0.31-0.22,0.54-0.54,0.71-0.96c0.16-0.42,0.25-0.92,0.25-1.5s-0.08-1.09-0.25-1.51
				c-0.16-0.42-0.4-0.74-0.71-0.97s-0.69-0.34-1.13-0.34s-0.81,0.11-1.13,0.34c-0.31,0.23-0.55,0.55-0.72,0.97s-0.25,0.92-0.25,1.51
				s0.08,1.09,0.25,1.5c0.17,0.42,0.41,0.73,0.72,0.96c0.31,0.22,0.69,0.34,1.14,0.34C627.56,294.73,627.93,294.62,628.24,294.4z"/>
			<path class="st7" d="M632.27,295.42v-6.99c0-0.14,0.06-0.21,0.18-0.21h1.11c0.11,0,0.17,0.06,0.17,0.18v0.77
				c0,0.05,0.01,0.08,0.04,0.09s0.06,0,0.11-0.05c0.29-0.23,0.56-0.44,0.83-0.61c0.26-0.17,0.53-0.3,0.8-0.39
				c0.27-0.09,0.56-0.13,0.88-0.13c0.71,0,1.26,0.2,1.65,0.59c0.39,0.39,0.59,0.91,0.59,1.55v5.17c0,0.17-0.08,0.25-0.24,0.25h-1.04
				c-0.07,0-0.13-0.02-0.16-0.05c-0.03-0.03-0.05-0.09-0.05-0.18v-4.9c0-0.41-0.11-0.73-0.32-0.97s-0.55-0.35-0.99-0.35
				c-0.25,0-0.49,0.04-0.7,0.12s-0.43,0.2-0.64,0.35s-0.45,0.35-0.71,0.58v5.15c0,0.16-0.09,0.24-0.27,0.24h-0.99
				C632.34,295.64,632.27,295.57,632.27,295.42z"/>
			<path class="st7" d="M644.25,289.31c-0.32-0.17-0.7-0.25-1.13-0.25c-0.46,0-0.84,0.09-1.14,0.28s-0.46,0.45-0.46,0.78
				c0,0.16,0.07,0.32,0.2,0.48s0.41,0.3,0.84,0.42l1.72,0.49c0.68,0.18,1.17,0.44,1.47,0.8c0.3,0.35,0.45,0.76,0.45,1.22
				c0,0.47-0.13,0.87-0.4,1.2c-0.27,0.33-0.63,0.59-1.11,0.78s-1.01,0.28-1.62,0.28c-0.76,0-1.43-0.15-2-0.44
				c-0.56-0.29-0.96-0.66-1.2-1.1c-0.02-0.06-0.03-0.1-0.03-0.15s0.02-0.08,0.06-0.1l0.69-0.36c0.07-0.04,0.12-0.05,0.16-0.05
				s0.07,0.03,0.09,0.06c0.15,0.21,0.32,0.41,0.52,0.57c0.2,0.17,0.43,0.3,0.71,0.4s0.62,0.15,1.01,0.15c0.33,0,0.62-0.04,0.89-0.13
				s0.47-0.21,0.62-0.37s0.22-0.34,0.22-0.56s-0.09-0.42-0.27-0.58c-0.18-0.16-0.5-0.31-0.96-0.43l-1.43-0.36
				c-0.71-0.19-1.22-0.44-1.53-0.77c-0.31-0.33-0.46-0.72-0.46-1.18s0.12-0.86,0.36-1.2c0.24-0.34,0.58-0.61,1.03-0.81
				c0.44-0.2,0.96-0.29,1.56-0.29c0.65,0,1.23,0.12,1.72,0.37s0.87,0.56,1.12,0.94c0.03,0.04,0.05,0.08,0.06,0.12
				s-0.01,0.08-0.07,0.12l-0.73,0.38c-0.04,0.02-0.08,0.02-0.12,0.01s-0.08-0.03-0.12-0.07
				C644.82,289.7,644.57,289.48,644.25,289.31z"/>
			<path class="st7" d="M649.17,293.59c0.2,0.34,0.47,0.61,0.81,0.81s0.72,0.3,1.14,0.3c0.43,0,0.81-0.09,1.15-0.27
				s0.64-0.45,0.92-0.83c0.03-0.04,0.06-0.06,0.08-0.06c0.03,0,0.07,0.01,0.13,0.03l0.71,0.34c0.1,0.05,0.11,0.12,0.03,0.22
				c-0.26,0.38-0.55,0.7-0.86,0.94s-0.66,0.42-1.04,0.53s-0.81,0.17-1.27,0.17c-0.71,0-1.33-0.16-1.88-0.48s-0.97-0.76-1.28-1.33
				s-0.47-1.22-0.47-1.96c0-0.81,0.16-1.51,0.48-2.09s0.75-1.04,1.29-1.36c0.55-0.32,1.15-0.48,1.83-0.48c0.69,0,1.3,0.15,1.81,0.46
				s0.92,0.74,1.21,1.31s0.43,1.26,0.43,2.07c0,0.08-0.01,0.16-0.03,0.22s-0.08,0.09-0.18,0.09H649c-0.05,0-0.08,0.02-0.1,0.06
				c-0.02,0.04-0.04,0.1-0.04,0.16C648.87,292.87,648.97,293.25,649.17,293.59z M652.7,291.34c0.1,0,0.17-0.01,0.2-0.04
				s0.04-0.08,0.04-0.15c0-0.35-0.08-0.69-0.23-1.01c-0.15-0.32-0.37-0.57-0.66-0.77c-0.29-0.2-0.64-0.29-1.06-0.29
				c-0.44,0-0.81,0.1-1.13,0.31c-0.31,0.21-0.55,0.49-0.71,0.83s-0.25,0.71-0.25,1.11L652.7,291.34z"/>
			<path class="st7" d="M657.32,293.59c0.2,0.34,0.47,0.61,0.81,0.81s0.72,0.3,1.14,0.3c0.43,0,0.81-0.09,1.15-0.27
				s0.64-0.45,0.92-0.83c0.03-0.04,0.06-0.06,0.08-0.06c0.03,0,0.07,0.01,0.13,0.03l0.71,0.34c0.1,0.05,0.11,0.12,0.03,0.22
				c-0.26,0.38-0.55,0.7-0.86,0.94s-0.66,0.42-1.04,0.53s-0.81,0.17-1.27,0.17c-0.71,0-1.33-0.16-1.88-0.48s-0.97-0.76-1.28-1.33
				s-0.47-1.22-0.47-1.96c0-0.81,0.16-1.51,0.48-2.09s0.75-1.04,1.29-1.36c0.55-0.32,1.15-0.48,1.83-0.48c0.69,0,1.3,0.15,1.81,0.46
				s0.92,0.74,1.21,1.31s0.43,1.26,0.43,2.07c0,0.08-0.01,0.16-0.03,0.22s-0.08,0.09-0.18,0.09h-5.18c-0.05,0-0.08,0.02-0.1,0.06
				c-0.02,0.04-0.04,0.1-0.04,0.16C657.02,292.87,657.12,293.25,657.32,293.59z M660.84,291.34c0.1,0,0.17-0.01,0.2-0.04
				s0.04-0.08,0.04-0.15c0-0.35-0.08-0.69-0.23-1.01c-0.15-0.32-0.37-0.57-0.66-0.77c-0.29-0.2-0.64-0.29-1.06-0.29
				c-0.44,0-0.81,0.1-1.13,0.31c-0.31,0.21-0.55,0.49-0.71,0.83s-0.25,0.71-0.25,1.11L660.84,291.34z"/>
			<path class="st7" d="M669.11,295.59c-0.04-0.04-0.06-0.09-0.06-0.17v-0.53c0-0.07-0.02-0.1-0.06-0.11
				c-0.04-0.01-0.08,0.01-0.13,0.06c-0.12,0.11-0.28,0.24-0.46,0.39s-0.42,0.28-0.7,0.39c-0.28,0.11-0.61,0.17-0.99,0.17
				c-0.58,0-1.1-0.14-1.56-0.42s-0.83-0.7-1.09-1.25c-0.27-0.56-0.4-1.25-0.4-2.08c0-0.79,0.14-1.48,0.42-2.07
				c0.28-0.59,0.66-1.05,1.15-1.38c0.49-0.33,1.03-0.5,1.64-0.5c0.44,0,0.81,0.07,1.11,0.21s0.58,0.32,0.82,0.53
				c0.07,0.07,0.13,0.09,0.17,0.08s0.06-0.07,0.06-0.17v-3.26c0-0.14,0.06-0.21,0.18-0.21h1.12c0.12,0,0.18,0.07,0.18,0.21v9.94
				c0,0.08-0.02,0.14-0.06,0.18c-0.04,0.04-0.11,0.06-0.21,0.06h-0.97C669.21,295.64,669.15,295.62,669.11,295.59z M668.21,289.33
				c-0.27-0.15-0.57-0.22-0.91-0.22c-0.41,0-0.78,0.11-1.1,0.32c-0.32,0.21-0.57,0.53-0.76,0.96c-0.18,0.42-0.27,0.96-0.27,1.6
				c0,0.65,0.09,1.19,0.28,1.6s0.44,0.71,0.75,0.9s0.66,0.29,1.03,0.29c0.34,0,0.64-0.08,0.91-0.24s0.49-0.36,0.64-0.6
				c0.16-0.24,0.24-0.47,0.24-0.71v-3.28C668.75,289.69,668.48,289.48,668.21,289.33z"/>
		</g>
	</g>
	<g>
		<g>
			<path class="st7" d="M599.78,304.23c0.49,0.24,0.92,0.59,1.28,1.04c0.36,0.46,0.65,1.02,0.85,1.69c0.2,0.67,0.3,1.43,0.3,2.27
				c0,1.13-0.17,2.09-0.52,2.88c-0.35,0.79-0.83,1.39-1.44,1.8c-0.61,0.41-1.3,0.62-2.07,0.62s-1.46-0.21-2.07-0.62
				s-1.08-1.01-1.44-1.79c-0.35-0.78-0.52-1.74-0.52-2.87c0-0.86,0.1-1.62,0.31-2.28s0.49-1.23,0.86-1.69
				c0.36-0.46,0.79-0.81,1.28-1.05c0.49-0.24,1.03-0.36,1.6-0.36C598.76,303.87,599.29,303.99,599.78,304.23z M599.43,312.86
				c0.34-0.27,0.6-0.71,0.78-1.3s0.27-1.37,0.27-2.33c0-0.98-0.09-1.77-0.28-2.38c-0.19-0.61-0.45-1.05-0.8-1.33
				s-0.76-0.42-1.23-0.42s-0.87,0.14-1.22,0.42c-0.34,0.28-0.61,0.73-0.8,1.34s-0.29,1.4-0.29,2.37c0,0.96,0.1,1.74,0.29,2.33
				s0.46,1.03,0.8,1.3c0.35,0.28,0.76,0.41,1.23,0.41C598.68,313.28,599.09,313.14,599.43,312.86z"/>
			<path class="st7" d="M605.43,314.15c0,0.17-0.1,0.25-0.29,0.25h-1.19c-0.16,0-0.24-0.07-0.24-0.22v-1.39
				c0-0.13,0.06-0.2,0.17-0.2h1.4c0.1,0,0.15,0.06,0.15,0.18L605.43,314.15L605.43,314.15z"/>
			<path class="st7" d="M612.3,313.26v0.95c0,0.05-0.02,0.09-0.05,0.13c-0.03,0.04-0.09,0.06-0.16,0.06H607
				c-0.13,0-0.2-0.06-0.2-0.17v-0.97c0-0.1,0.06-0.15,0.18-0.15h1.67c0.08,0,0.13-0.03,0.13-0.08v-7.13c0-0.11-0.05-0.15-0.15-0.13
				l-1.61,0.56c-0.15,0.04-0.22-0.03-0.22-0.2v-0.67c0-0.08,0.01-0.14,0.04-0.16c0.02-0.02,0.06-0.05,0.12-0.09l2.17-1.08
				c0.1-0.05,0.18-0.08,0.24-0.1s0.14-0.03,0.23-0.03h0.7c0.12,0,0.18,0.07,0.18,0.2v8.78c0,0.08,0.03,0.13,0.1,0.13h1.54
				C612.24,313.11,612.3,313.16,612.3,313.26z"/>
			<path class="st7" d="M618.33,304.04c0.05-0.02,0.13-0.04,0.23-0.04h1.21c0.12,0,0.18,0.07,0.18,0.2v6.16
				c0,0.09,0.04,0.14,0.12,0.14h1.26c0.14,0,0.21,0.06,0.21,0.17v0.84c0,0.14-0.07,0.21-0.21,0.21h-1.25
				c-0.09,0-0.14,0.05-0.14,0.14v2.3c0,0.16-0.09,0.24-0.27,0.24h-1.22c-0.15,0-0.22-0.07-0.22-0.22v-2.35c0-0.06-0.05-0.1-0.14-0.1
				h-4.42c-0.16,0-0.24-0.07-0.24-0.21v-0.85c0-0.07,0.02-0.15,0.06-0.23c0.04-0.08,0.11-0.18,0.2-0.3l4.45-5.94
				C618.22,304.12,618.28,304.07,618.33,304.04z M618.1,310.51c0.08,0,0.12-0.03,0.12-0.1v-4.3c0-0.11-0.01-0.17-0.04-0.18
				c-0.03-0.01-0.08,0.03-0.15,0.13l-3.14,4.27c-0.09,0.12-0.06,0.18,0.1,0.18H618.1z"/>
			<path class="st7" d="M625.41,308.04c-0.08,0-0.12,0.05-0.12,0.14v4.1c0,0.4,0.07,0.67,0.22,0.82c0.15,0.14,0.38,0.22,0.69,0.22
				h0.9c0.05,0,0.1,0.02,0.12,0.05s0.04,0.07,0.04,0.12v0.6c0,0.12-0.07,0.2-0.21,0.24c-0.12,0.02-0.27,0.03-0.45,0.04
				s-0.35,0.02-0.53,0.02c-0.17,0-0.32,0.01-0.46,0.01c-0.61,0-1.06-0.14-1.37-0.43s-0.46-0.73-0.46-1.32v-4.44
				c0-0.11-0.05-0.17-0.14-0.17h-1.05c-0.12,0-0.18-0.06-0.18-0.17v-0.74c0-0.1,0.05-0.15,0.17-0.15h1.12
				c0.07,0,0.11-0.04,0.11-0.13l0.17-2.2c0.01-0.13,0.07-0.2,0.17-0.2h0.97c0.12,0,0.18,0.07,0.18,0.22v2.17
				c0,0.08,0.04,0.13,0.13,0.13h1.68c0.11,0,0.17,0.05,0.17,0.15v0.74c0,0.11-0.07,0.17-0.2,0.17h-1.67L625.41,308.04L625.41,308.04
				z"/>
		</g>
	</g>
</g>
<g id="ai2html-settings">
</g>
</svg>
